<svg xmlns="http://www.w3.org/2000/svg" xmlns:xlink="http://www.w3.org/1999/xlink" width="500" zoomAndPan="magnify" viewBox="0 0 375 374.999991" height="500" preserveAspectRatio="xMidYMid meet" version="1.0"><defs><clipPath id="27c2a2c269"><path d="M 71.101562 186.527344 L 72.550781 186.527344 L 72.550781 187.777344 L 71.101562 187.777344 Z M 71.101562 186.527344 " clip-rule="nonzero"/></clipPath><clipPath id="433a7a5b86"><path d="M 72.523438 186.976562 C 71.925781 188.023438 71.324219 187.800781 71.175781 187.574219 C 71.023438 187.425781 71.175781 186.75 71.324219 186.601562 C 71.550781 186.449219 72.375 186.675781 72.375 186.675781 " clip-rule="nonzero"/></clipPath><clipPath id="8497ae0471"><path d="M 186.78125 172.050781 L 188.257812 172.050781 L 188.257812 173.273438 L 186.78125 173.273438 Z M 186.78125 172.050781 " clip-rule="nonzero"/></clipPath><clipPath id="e9997380d7"><path d="M 188.25 172.5 C 187.574219 173.476562 186.976562 173.324219 186.824219 173.101562 C 186.75 172.875 186.824219 172.273438 187.050781 172.125 C 187.199219 171.976562 188.023438 172.125 188.023438 172.125 " clip-rule="nonzero"/></clipPath><clipPath id="2f179e673e"><path d="M 64.953125 155.851562 L 66.402344 155.851562 L 66.402344 157.046875 L 64.953125 157.046875 Z M 64.953125 155.851562 " clip-rule="nonzero"/></clipPath><clipPath id="8abcba5b1f"><path d="M 66.375 156.226562 C 65.773438 157.273438 65.175781 157.050781 65.023438 156.898438 C 64.875 156.675781 65.023438 156.074219 65.175781 155.925781 C 65.398438 155.773438 66.226562 155.925781 66.226562 155.925781 " clip-rule="nonzero"/></clipPath><clipPath id="6f8dd5ca27"><path d="M 21.179688 74.496094 L 354 74.496094 L 354 292.746094 L 21.179688 292.746094 Z M 21.179688 74.496094 " clip-rule="nonzero"/></clipPath></defs><g clip-path="url(#27c2a2c269)"><g clip-path="url(#433a7a5b86)"><path fill="#ffffff" d="M 68.175781 183.601562 L 75.59375 183.601562 L 75.59375 190.875 L 68.175781 190.875 Z M 68.175781 183.601562 " fill-opacity="1" fill-rule="nonzero"/></g></g><g clip-path="url(#8497ae0471)"><g clip-path="url(#e9997380d7)"><path fill="#ffffff" d="M 183.824219 169.125 L 191.242188 169.125 L 191.242188 176.398438 L 183.824219 176.398438 Z M 183.824219 169.125 " fill-opacity="1" fill-rule="nonzero"/></g></g><g clip-path="url(#2f179e673e)"><g clip-path="url(#8abcba5b1f)"><path fill="#ffffff" d="M 62.023438 152.925781 L 69.441406 152.925781 L 69.441406 160.199219 L 62.023438 160.199219 Z M 62.023438 152.925781 " fill-opacity="1" fill-rule="nonzero"/></g></g><g clip-path="url(#6f8dd5ca27)"><path fill="#ffffff" d="M 302.945312 74.496094 L 72.117188 74.496094 C 44.144531 74.496094 21.421875 97.21875 21.421875 125.191406 L 21.421875 242.003906 C 21.421875 269.976562 44.144531 292.699219 72.117188 292.699219 L 302.945312 292.699219 C 330.917969 292.699219 353.644531 269.976562 353.644531 242.003906 L 353.644531 125.191406 C 353.644531 97.21875 330.917969 74.496094 302.945312 74.496094 Z M 153.378906 242.800781 L 153.378906 124.460938 L 255.835938 183.664062 L 153.378906 242.867188 Z M 153.378906 242.800781 " fill-opacity="1" fill-rule="nonzero"/></g></svg>