<svg xmlns="http://www.w3.org/2000/svg" xmlns:xlink="http://www.w3.org/1999/xlink" width="500" zoomAndPan="magnify" viewBox="0 0 375 374.999991" height="500" preserveAspectRatio="xMidYMid meet" version="1.0"><defs><clipPath id="0b41cc941e"><path d="M 71.101562 186.527344 L 72.550781 186.527344 L 72.550781 187.777344 L 71.101562 187.777344 Z M 71.101562 186.527344 " clip-rule="nonzero"/></clipPath><clipPath id="42b87831cc"><path d="M 72.523438 186.976562 C 71.925781 188.023438 71.324219 187.800781 71.175781 187.574219 C 71.023438 187.425781 71.175781 186.75 71.324219 186.601562 C 71.550781 186.449219 72.375 186.675781 72.375 186.675781 " clip-rule="nonzero"/></clipPath><clipPath id="c4d41b9010"><path d="M 186.78125 172.050781 L 188.257812 172.050781 L 188.257812 173.273438 L 186.78125 173.273438 Z M 186.78125 172.050781 " clip-rule="nonzero"/></clipPath><clipPath id="4263327f2a"><path d="M 188.25 172.5 C 187.574219 173.476562 186.976562 173.324219 186.824219 173.101562 C 186.75 172.875 186.824219 172.273438 187.050781 172.125 C 187.199219 171.976562 188.023438 172.125 188.023438 172.125 " clip-rule="nonzero"/></clipPath><clipPath id="56bff1243a"><path d="M 64.953125 155.851562 L 66.402344 155.851562 L 66.402344 157.046875 L 64.953125 157.046875 Z M 64.953125 155.851562 " clip-rule="nonzero"/></clipPath><clipPath id="9f4d19278d"><path d="M 66.375 156.226562 C 65.773438 157.273438 65.175781 157.050781 65.023438 156.898438 C 64.875 156.675781 65.023438 156.074219 65.175781 155.925781 C 65.398438 155.773438 66.226562 155.925781 66.226562 155.925781 " clip-rule="nonzero"/></clipPath><clipPath id="78b4ddb405"><path d="M 50.035156 50.839844 L 322.285156 50.839844 L 322.285156 321.589844 L 50.035156 321.589844 Z M 50.035156 50.839844 " clip-rule="nonzero"/></clipPath></defs><g clip-path="url(#0b41cc941e)"><g clip-path="url(#42b87831cc)"><path fill="#ffffff" d="M 68.175781 183.601562 L 75.59375 183.601562 L 75.59375 190.875 L 68.175781 190.875 Z M 68.175781 183.601562 " fill-opacity="1" fill-rule="nonzero"/></g></g><g clip-path="url(#c4d41b9010)"><g clip-path="url(#4263327f2a)"><path fill="#ffffff" d="M 183.824219 169.125 L 191.242188 169.125 L 191.242188 176.398438 L 183.824219 176.398438 Z M 183.824219 169.125 " fill-opacity="1" fill-rule="nonzero"/></g></g><g clip-path="url(#56bff1243a)"><g clip-path="url(#9f4d19278d)"><path fill="#ffffff" d="M 62.023438 152.925781 L 69.441406 152.925781 L 69.441406 160.199219 L 62.023438 160.199219 Z M 62.023438 152.925781 " fill-opacity="1" fill-rule="nonzero"/></g></g><g clip-path="url(#78b4ddb405)"><path fill="#ffffff" d="M 222.851562 185.902344 L 321.882812 50.816406 L 311.316406 50.816406 L 112.992188 321.347656 L 123.558594 321.347656 L 186.105469 236.023438 L 248.644531 321.347656 L 322.128906 321.347656 Z M 189.839844 145.011719 L 191.359375 142.9375 L 123.835938 50.816406 L 50.355469 50.816406 L 149.371094 185.90625 L 50.078125 321.347656 L 60.644531 321.347656 L 189.886719 145.050781 Z M 189.839844 145.011719 " fill-opacity="1" fill-rule="nonzero"/></g></svg>