<svg xmlns="http://www.w3.org/2000/svg" xmlns:xlink="http://www.w3.org/1999/xlink" width="500" zoomAndPan="magnify" viewBox="0 0 375 374.999991" height="500" preserveAspectRatio="xMidYMid meet" version="1.0"><defs><clipPath id="0fe7db5a21"><path d="M 71.101562 186.527344 L 72.550781 186.527344 L 72.550781 187.777344 L 71.101562 187.777344 Z M 71.101562 186.527344 " clip-rule="nonzero"/></clipPath><clipPath id="fe5ea511cc"><path d="M 72.523438 186.976562 C 71.925781 188.023438 71.324219 187.800781 71.175781 187.574219 C 71.023438 187.425781 71.175781 186.75 71.324219 186.601562 C 71.550781 186.449219 72.375 186.675781 72.375 186.675781 " clip-rule="nonzero"/></clipPath><clipPath id="b57ba88dc2"><path d="M 186.78125 172.050781 L 188.257812 172.050781 L 188.257812 173.273438 L 186.78125 173.273438 Z M 186.78125 172.050781 " clip-rule="nonzero"/></clipPath><clipPath id="27c0b7dceb"><path d="M 188.25 172.5 C 187.574219 173.476562 186.976562 173.324219 186.824219 173.101562 C 186.75 172.875 186.824219 172.273438 187.050781 172.125 C 187.199219 171.976562 188.023438 172.125 188.023438 172.125 " clip-rule="nonzero"/></clipPath><clipPath id="cf46a3cae9"><path d="M 64.953125 155.851562 L 66.402344 155.851562 L 66.402344 157.046875 L 64.953125 157.046875 Z M 64.953125 155.851562 " clip-rule="nonzero"/></clipPath><clipPath id="d1839bdf78"><path d="M 66.375 156.226562 C 65.773438 157.273438 65.175781 157.050781 65.023438 156.898438 C 64.875 156.675781 65.023438 156.074219 65.175781 155.925781 C 65.398438 155.773438 66.226562 155.925781 66.226562 155.925781 " clip-rule="nonzero"/></clipPath><clipPath id="7de659ae9c"><path d="M 37.5 37.5 L 337.5 37.5 L 337.5 337.5 L 37.5 337.5 Z M 37.5 37.5 " clip-rule="nonzero"/></clipPath></defs><g clip-path="url(#0fe7db5a21)"><g clip-path="url(#fe5ea511cc)"><path fill="#ffffff" d="M 68.175781 183.601562 L 75.59375 183.601562 L 75.59375 190.875 L 68.175781 190.875 Z M 68.175781 183.601562 " fill-opacity="1" fill-rule="nonzero"/></g></g><g clip-path="url(#b57ba88dc2)"><g clip-path="url(#27c0b7dceb)"><path fill="#ffffff" d="M 183.824219 169.125 L 191.242188 169.125 L 191.242188 176.398438 L 183.824219 176.398438 Z M 183.824219 169.125 " fill-opacity="1" fill-rule="nonzero"/></g></g><g clip-path="url(#cf46a3cae9)"><g clip-path="url(#d1839bdf78)"><path fill="#ffffff" d="M 62.023438 152.925781 L 69.441406 152.925781 L 69.441406 160.199219 L 62.023438 160.199219 Z M 62.023438 152.925781 " fill-opacity="1" fill-rule="nonzero"/></g></g><g clip-path="url(#7de659ae9c)"><path fill="#ffffff" d="M 104.988281 37.5 L 269.835938 37.5 C 288.464844 37.5 305.339844 45.058594 317.640625 57.359375 C 329.765625 69.484375 337.5 86.535156 337.5 104.988281 L 337.5 269.835938 C 337.5 288.464844 329.765625 305.339844 317.640625 317.640625 C 305.339844 329.765625 288.464844 337.5 269.835938 337.5 L 104.988281 337.5 C 86.535156 337.5 69.484375 329.765625 57.359375 317.640625 C 45.058594 305.339844 37.5 288.464844 37.5 269.835938 L 37.5 104.988281 C 37.5 86.535156 45.058594 69.484375 57.359375 57.359375 C 69.484375 45.058594 86.535156 37.5 104.988281 37.5 Z M 269.835938 64.214844 L 104.988281 64.214844 C 93.738281 64.214844 83.546875 68.78125 76.164062 76.164062 C 68.78125 83.546875 64.214844 93.738281 64.214844 104.988281 L 64.214844 269.835938 C 64.214844 281.085938 68.78125 291.277344 76.164062 298.660156 C 83.546875 306.21875 93.738281 310.785156 104.988281 310.785156 L 269.835938 310.785156 C 281.085938 310.785156 291.277344 306.21875 298.660156 298.660156 C 306.21875 291.277344 310.785156 281.085938 310.785156 269.835938 L 310.785156 104.988281 C 310.785156 93.738281 306.21875 83.546875 298.660156 76.164062 C 291.277344 68.78125 281.085938 64.214844 269.835938 64.214844 Z M 269.835938 64.214844 " fill-opacity="1" fill-rule="nonzero"/></g><path fill="#ffffff" d="M 271.59375 89.871094 C 275.285156 89.871094 278.800781 91.277344 281.085938 93.738281 C 283.546875 96.199219 285.128906 99.539062 285.128906 103.230469 C 285.128906 106.921875 283.546875 110.433594 281.085938 112.71875 C 278.800781 115.179688 275.285156 116.761719 271.59375 116.761719 C 267.902344 116.761719 264.566406 115.179688 262.105469 112.71875 C 259.644531 110.433594 258.238281 106.921875 258.238281 103.230469 C 258.238281 99.539062 259.644531 96.199219 262.105469 93.738281 C 264.566406 91.277344 267.902344 89.871094 271.59375 89.871094 Z M 271.59375 89.871094 " fill-opacity="1" fill-rule="nonzero"/><path fill="#ffffff" d="M 187.414062 114.652344 C 207.621094 114.652344 225.726562 122.914062 238.90625 135.917969 C 252.085938 149.097656 260.347656 167.378906 260.347656 187.414062 C 260.347656 207.621094 252.085938 225.726562 238.90625 238.90625 C 225.726562 252.085938 207.621094 260.347656 187.414062 260.347656 C 167.378906 260.347656 149.097656 252.085938 135.917969 238.90625 C 122.914062 225.726562 114.652344 207.621094 114.652344 187.414062 C 114.652344 167.378906 122.914062 149.097656 135.917969 135.917969 C 149.097656 122.914062 167.378906 114.652344 187.414062 114.652344 Z M 219.925781 155.074219 C 211.664062 146.816406 200.066406 141.542969 187.414062 141.542969 C 174.757812 141.542969 163.335938 146.816406 155.074219 155.074219 C 146.816406 163.335938 141.542969 174.757812 141.542969 187.414062 C 141.542969 200.066406 146.816406 211.664062 155.074219 219.925781 C 163.335938 228.183594 174.757812 233.28125 187.414062 233.28125 C 200.066406 233.28125 211.664062 228.183594 219.925781 219.925781 C 228.183594 211.664062 233.28125 200.066406 233.28125 187.414062 C 233.28125 174.757812 228.183594 163.335938 219.925781 155.074219 Z M 219.925781 155.074219 " fill-opacity="1" fill-rule="nonzero"/></svg>