<svg xmlns="http://www.w3.org/2000/svg" xmlns:xlink="http://www.w3.org/1999/xlink" width="500" zoomAndPan="magnify" viewBox="0 0 375 374.999991" height="500" preserveAspectRatio="xMidYMid meet" version="1.0"><defs><clipPath id="b7f351b799"><path d="M 71.101562 186.527344 L 72.550781 186.527344 L 72.550781 187.777344 L 71.101562 187.777344 Z M 71.101562 186.527344 " clip-rule="nonzero"/></clipPath><clipPath id="b8a524547a"><path d="M 72.523438 186.976562 C 71.925781 188.023438 71.324219 187.800781 71.175781 187.574219 C 71.023438 187.425781 71.175781 186.75 71.324219 186.601562 C 71.550781 186.449219 72.375 186.675781 72.375 186.675781 " clip-rule="nonzero"/></clipPath><clipPath id="b5d0f2cf8d"><path d="M 186.78125 172.050781 L 188.257812 172.050781 L 188.257812 173.273438 L 186.78125 173.273438 Z M 186.78125 172.050781 " clip-rule="nonzero"/></clipPath><clipPath id="68461ac903"><path d="M 188.25 172.5 C 187.574219 173.476562 186.976562 173.324219 186.824219 173.101562 C 186.75 172.875 186.824219 172.273438 187.050781 172.125 C 187.199219 171.976562 188.023438 172.125 188.023438 172.125 " clip-rule="nonzero"/></clipPath><clipPath id="d19f6eaa54"><path d="M 43.480469 43.480469 L 327 43.480469 L 327 333 L 43.480469 333 Z M 43.480469 43.480469 " clip-rule="nonzero"/></clipPath><clipPath id="951f40350b"><path d="M 182 163 L 337.480469 163 L 337.480469 337.480469 L 182 337.480469 Z M 182 163 " clip-rule="nonzero"/></clipPath><clipPath id="b796b5250e"><path d="M 64.953125 155.851562 L 66.402344 155.851562 L 66.402344 157.046875 L 64.953125 157.046875 Z M 64.953125 155.851562 " clip-rule="nonzero"/></clipPath><clipPath id="6745f269fa"><path d="M 66.375 156.226562 C 65.773438 157.273438 65.175781 157.050781 65.023438 156.898438 C 64.875 156.675781 65.023438 156.074219 65.175781 155.925781 C 65.398438 155.773438 66.226562 155.925781 66.226562 155.925781 " clip-rule="nonzero"/></clipPath></defs><g clip-path="url(#b7f351b799)"><g clip-path="url(#b8a524547a)"><path fill="#ffffff" d="M 68.175781 183.601562 L 75.59375 183.601562 L 75.59375 190.875 L 68.175781 190.875 Z M 68.175781 183.601562 " fill-opacity="1" fill-rule="nonzero"/></g></g><g clip-path="url(#b5d0f2cf8d)"><g clip-path="url(#68461ac903)"><path fill="#ffffff" d="M 183.824219 169.125 L 191.242188 169.125 L 191.242188 176.398438 L 183.824219 176.398438 Z M 183.824219 169.125 " fill-opacity="1" fill-rule="nonzero"/></g></g><g clip-path="url(#d19f6eaa54)"><path fill="#ffffff" d="M 161.25 279.449219 L 161.25 326.355469 C 161.25 330.648438 157.183594 333.746094 153.039062 332.660156 C 90.0625 316.054688 43.480469 258.605469 43.480469 190.484375 C 43.480469 109.425781 109.425781 43.480469 190.484375 43.480469 C 249.851562 43.480469 303.074219 78.855469 326.058594 133.59375 L 326.0625 133.601562 C 327.855469 137.894531 324.703125 142.632812 320.054688 142.632812 L 263.347656 142.632812 C 261.378906 142.632812 259.507812 141.75 258.277344 140.203125 C 241.929688 119.542969 217.003906 107.363281 190.484375 107.363281 C 141.003906 107.363281 101.101562 149.191406 104.292969 199.363281 C 106.417969 232.589844 127.648438 261.070312 157.234375 273.445312 C 159.660156 274.460938 161.25 276.820312 161.25 279.449219 " fill-opacity="1" fill-rule="evenodd"/></g><g clip-path="url(#951f40350b)"><path fill="#ffffff" d="M 337.492188 190.484375 C 337.492188 198.429688 336.847656 206.382812 335.582031 214.148438 C 330.074219 248.222656 312.542969 279.429688 286.222656 302.046875 C 259.613281 324.902344 225.613281 337.492188 190.484375 337.492188 C 189.871094 337.492188 189.246094 337.492188 188.628906 337.480469 C 185.058594 337.441406 182.183594 334.535156 182.183594 330.964844 L 182.183594 286.570312 C 182.183594 282.917969 185.191406 280.003906 188.855469 280.074219 C 222.390625 280.710938 252.398438 261.980469 267.175781 233.535156 C 269.414062 229.214844 266.242188 224.054688 261.367188 224.054688 L 188.691406 224.054688 C 185.101562 224.054688 182.183594 221.136719 182.183594 217.535156 L 182.183594 169.929688 C 182.183594 166.328125 185.097656 163.414062 188.691406 163.414062 L 329.550781 163.414062 C 332.863281 163.414062 335.644531 165.898438 336.023438 169.191406 L 336.558594 173.890625 C 337.175781 179.371094 337.492188 184.964844 337.492188 190.484375 " fill-opacity="1" fill-rule="evenodd"/></g><g clip-path="url(#b796b5250e)"><g clip-path="url(#6745f269fa)"><path fill="#ffffff" d="M 62.023438 152.925781 L 69.441406 152.925781 L 69.441406 160.199219 L 62.023438 160.199219 Z M 62.023438 152.925781 " fill-opacity="1" fill-rule="nonzero"/></g></g></svg>