<svg xmlns="http://www.w3.org/2000/svg" xmlns:xlink="http://www.w3.org/1999/xlink" width="500" zoomAndPan="magnify" viewBox="0 0 375 374.999991" height="500" preserveAspectRatio="xMidYMid meet" version="1.0"><defs><clipPath id="1a49b92a4f"><path d="M 71.101562 186.527344 L 72.550781 186.527344 L 72.550781 187.777344 L 71.101562 187.777344 Z M 71.101562 186.527344 " clip-rule="nonzero"/></clipPath><clipPath id="08bae48983"><path d="M 72.523438 186.976562 C 71.925781 188.023438 71.324219 187.800781 71.175781 187.574219 C 71.023438 187.425781 71.175781 186.75 71.324219 186.601562 C 71.550781 186.449219 72.375 186.675781 72.375 186.675781 " clip-rule="nonzero"/></clipPath><clipPath id="b292b843d6"><path d="M 30 150 L 344 150 L 344 332.96875 L 30 332.96875 Z M 30 150 " clip-rule="nonzero"/></clipPath><clipPath id="8242f075f5"><path d="M 77 41.21875 L 253 41.21875 L 253 250 L 77 250 Z M 77 41.21875 " clip-rule="nonzero"/></clipPath><clipPath id="5e84b24939"><path d="M 186.78125 172.050781 L 188.257812 172.050781 L 188.257812 173.273438 L 186.78125 173.273438 Z M 186.78125 172.050781 " clip-rule="nonzero"/></clipPath><clipPath id="17aef89da8"><path d="M 188.25 172.5 C 187.574219 173.476562 186.976562 173.324219 186.824219 173.101562 C 186.75 172.875 186.824219 172.273438 187.050781 172.125 C 187.199219 171.976562 188.023438 172.125 188.023438 172.125 " clip-rule="nonzero"/></clipPath></defs><g clip-path="url(#1a49b92a4f)"><g clip-path="url(#08bae48983)"><path fill="#ffffff" d="M 68.175781 183.601562 L 75.59375 183.601562 L 75.59375 190.875 L 68.175781 190.875 Z M 68.175781 183.601562 " fill-opacity="1" fill-rule="nonzero"/></g></g><g clip-path="url(#b292b843d6)"><path fill="#ffffff" d="M 48.917969 329.828125 C 44.65625 334.105469 37.710938 334.105469 33.449219 329.828125 C 29.175781 325.570312 29.175781 318.636719 33.449219 314.363281 L 142.882812 204.929688 C 146.820312 200.992188 153.097656 200.640625 157.457031 204.113281 L 222.753906 256.363281 L 325.269531 153.863281 C 329.53125 149.585938 336.476562 149.585938 340.738281 153.863281 C 345.011719 158.136719 345.011719 165.066406 340.738281 169.328125 L 231.304688 278.761719 C 227.363281 282.714844 221.089844 283.066406 216.726562 279.578125 L 151.433594 227.328125 Z M 48.917969 329.828125 " fill-opacity="1" fill-rule="evenodd"/></g><path fill="#ffffff" d="M 289.230469 172.539062 C 283.1875 172.539062 278.285156 167.636719 278.285156 161.59375 C 278.285156 155.554688 283.1875 150.652344 289.230469 150.652344 L 333.003906 150.652344 C 339.042969 150.652344 343.945312 155.554688 343.945312 161.59375 L 343.945312 205.367188 C 343.945312 211.410156 339.042969 216.3125 333.003906 216.3125 C 326.960938 216.3125 322.058594 211.410156 322.058594 205.367188 L 322.058594 172.539062 Z M 289.230469 172.539062 " fill-opacity="1" fill-rule="evenodd"/><g clip-path="url(#8242f075f5)"><path fill="#ffffff" d="M 77.761719 249.417969 L 77.761719 205.03125 C 77.761719 203.867188 78.214844 202.757812 79.046875 201.9375 C 79.863281 201.109375 80.972656 200.65625 82.140625 200.65625 L 105.179688 200.65625 C 107.601562 200.65625 109.554688 202.609375 109.554688 205.03125 L 109.554688 217.609375 Z M 125.460938 201.707031 L 125.460938 125.527344 C 125.460938 124.375 125.914062 123.265625 126.746094 122.433594 C 127.5625 121.617188 128.671875 121.148438 129.835938 121.148438 L 152.878906 121.148438 C 155.300781 121.148438 157.253906 123.117188 157.253906 125.527344 L 157.253906 188.003906 C 148.675781 185.699219 139.207031 187.976562 132.566406 194.613281 Z M 173.160156 198 L 173.160156 46.035156 C 173.160156 44.867188 173.609375 43.757812 174.441406 42.941406 C 175.257812 42.125 176.367188 41.65625 177.535156 41.65625 L 200.574219 41.65625 C 201.742188 41.65625 202.851562 42.125 203.667969 42.941406 C 204.5 43.757812 204.953125 44.867188 204.953125 46.035156 L 204.953125 223.433594 C 194.257812 214.882812 180.964844 204.246094 173.160156 198 Z M 220.855469 236.15625 L 220.855469 93.730469 C 220.855469 91.308594 222.8125 89.355469 225.234375 89.355469 L 248.273438 89.355469 C 250.695312 89.355469 252.648438 91.308594 252.648438 93.730469 L 252.648438 205.835938 L 221.671875 236.8125 C 221.671875 236.8125 221.382812 236.578125 220.855469 236.15625 Z M 220.855469 236.15625 " fill-opacity="1" fill-rule="evenodd"/></g><g clip-path="url(#5e84b24939)"><g clip-path="url(#17aef89da8)"><path fill="#ffffff" d="M 183.824219 169.125 L 191.242188 169.125 L 191.242188 176.398438 L 183.824219 176.398438 Z M 183.824219 169.125 " fill-opacity="1" fill-rule="nonzero"/></g></g></svg>