<svg xmlns="http://www.w3.org/2000/svg" xmlns:xlink="http://www.w3.org/1999/xlink" width="500" zoomAndPan="magnify" viewBox="0 0 375 374.999991" height="500" preserveAspectRatio="xMidYMid meet" version="1.0"><defs><clipPath id="8c282f2685"><path d="M 71.101562 186.527344 L 72.550781 186.527344 L 72.550781 187.777344 L 71.101562 187.777344 Z M 71.101562 186.527344 " clip-rule="nonzero"/></clipPath><clipPath id="05323c4a06"><path d="M 72.523438 186.976562 C 71.925781 188.023438 71.324219 187.800781 71.175781 187.574219 C 71.023438 187.425781 71.175781 186.75 71.324219 186.601562 C 71.550781 186.449219 72.375 186.675781 72.375 186.675781 " clip-rule="nonzero"/></clipPath><clipPath id="9f493cde79"><path d="M 186.78125 172.050781 L 188.257812 172.050781 L 188.257812 173.273438 L 186.78125 173.273438 Z M 186.78125 172.050781 " clip-rule="nonzero"/></clipPath><clipPath id="f171407ba6"><path d="M 188.25 172.5 C 187.574219 173.476562 186.976562 173.324219 186.824219 173.101562 C 186.75 172.875 186.824219 172.273438 187.050781 172.125 C 187.199219 171.976562 188.023438 172.125 188.023438 172.125 " clip-rule="nonzero"/></clipPath><clipPath id="273d096acd"><path d="M 64.953125 155.851562 L 66.402344 155.851562 L 66.402344 157.046875 L 64.953125 157.046875 Z M 64.953125 155.851562 " clip-rule="nonzero"/></clipPath><clipPath id="f764942f75"><path d="M 66.375 156.226562 C 65.773438 157.273438 65.175781 157.050781 65.023438 156.898438 C 64.875 156.675781 65.023438 156.074219 65.175781 155.925781 C 65.398438 155.773438 66.226562 155.925781 66.226562 155.925781 " clip-rule="nonzero"/></clipPath><clipPath id="9a25efbfe1"><path d="M 116.625 37.5 L 256.125 37.5 L 256.125 333 L 116.625 333 Z M 116.625 37.5 " clip-rule="nonzero"/></clipPath></defs><g clip-path="url(#8c282f2685)"><g clip-path="url(#05323c4a06)"><path fill="#ffffff" d="M 68.175781 183.601562 L 75.59375 183.601562 L 75.59375 190.875 L 68.175781 190.875 Z M 68.175781 183.601562 " fill-opacity="1" fill-rule="nonzero"/></g></g><g clip-path="url(#9f493cde79)"><g clip-path="url(#f171407ba6)"><path fill="#ffffff" d="M 183.824219 169.125 L 191.242188 169.125 L 191.242188 176.398438 L 183.824219 176.398438 Z M 183.824219 169.125 " fill-opacity="1" fill-rule="nonzero"/></g></g><g clip-path="url(#273d096acd)"><g clip-path="url(#f764942f75)"><path fill="#ffffff" d="M 62.023438 152.925781 L 69.441406 152.925781 L 69.441406 160.199219 L 62.023438 160.199219 Z M 62.023438 152.925781 " fill-opacity="1" fill-rule="nonzero"/></g></g><g clip-path="url(#9a25efbfe1)"><path fill="#ffffff" d="M 223.941406 86.511719 L 256.125 86.511719 L 256.125 37.945312 L 215.03125 37.945312 L 215.03125 38.132812 C 161 40.113281 149.859375 70.40625 148.929688 102.429688 L 148.808594 102.429688 L 148.808594 136.128906 L 116.625 136.128906 L 116.625 184.753906 L 148.808594 184.753906 L 148.808594 332.554688 L 206.550781 332.554688 L 206.550781 184.753906 L 247.957031 184.753906 L 256.125 136.128906 L 206.550781 136.128906 L 206.550781 105.960938 C 206.550781 95.246094 213.730469 86.511719 223.941406 86.511719 Z M 223.941406 86.511719 " fill-opacity="1" fill-rule="nonzero"/></g></svg>