<svg xmlns="http://www.w3.org/2000/svg" xmlns:xlink="http://www.w3.org/1999/xlink" width="500" zoomAndPan="magnify" viewBox="0 0 375 374.999991" height="500" preserveAspectRatio="xMidYMid meet" version="1.0"><defs><clipPath id="c80332c535"><path d="M 71.101562 186.527344 L 72.550781 186.527344 L 72.550781 187.777344 L 71.101562 187.777344 Z M 71.101562 186.527344 " clip-rule="nonzero"/></clipPath><clipPath id="5fbd87ec67"><path d="M 72.523438 186.976562 C 71.925781 188.023438 71.324219 187.800781 71.175781 187.574219 C 71.023438 187.425781 71.175781 186.75 71.324219 186.601562 C 71.550781 186.449219 72.375 186.675781 72.375 186.675781 " clip-rule="nonzero"/></clipPath></defs><path fill="#ffffff" d="M 268.414062 156.222656 C 257.265625 110.085938 235.445312 60.433594 213.890625 60.433594 C 212.824219 60.433594 211.757812 60.558594 210.730469 60.804688 C 206.035156 61.941406 202.292969 65.519531 199.546875 71.328125 C 199.257812 71.558594 198.9375 71.734375 198.695312 72.042969 C 186.628906 87.46875 143.417969 138.421875 94.121094 150.332031 L 56.457031 160.054688 C 56.304688 160.085938 56.160156 160.132812 56.015625 160.179688 C 44.472656 163.351562 34.730469 170.613281 28.460938 180.746094 C 21.902344 191.355469 19.90625 203.890625 22.847656 216.050781 C 25.789062 228.210938 33.289062 238.457031 43.964844 244.894531 C 54.59375 251.308594 67.164062 253.214844 79.347656 250.273438 L 87.160156 248.386719 C 87.160156 248.386719 87.164062 248.386719 87.167969 248.386719 L 87.171875 248.386719 L 96.5625 246.113281 L 127.730469 310.15625 C 131.789062 318.488281 140.160156 323.34375 148.859375 323.34375 C 152.300781 323.34375 155.796875 322.589844 159.089844 320.984375 C 170.714844 315.320312 175.570312 301.253906 169.910156 289.625 L 144.710938 237.84375 C 189.707031 237.464844 235.65625 258.378906 246.15625 263.472656 C 249.917969 266.269531 253.726562 267.824219 257.527344 267.824219 C 258.59375 267.824219 259.660156 267.699219 260.683594 267.449219 C 270.632812 265.042969 276.351562 251.816406 277.222656 229.1875 C 278.003906 208.871094 274.878906 182.957031 268.414062 156.222656 Z M 77.003906 240.582031 C 67.394531 242.910156 57.488281 241.40625 49.113281 236.355469 C 40.738281 231.300781 34.847656 223.253906 32.539062 213.703125 C 30.230469 204.152344 31.792969 194.304688 36.945312 185.980469 C 42.019531 177.769531 50.007812 171.941406 59.464844 169.5625 L 62.789062 168.757812 L 79.976562 239.859375 Z M 154.726562 312.015625 C 148.042969 315.269531 139.949219 312.476562 136.699219 305.792969 L 125.386719 282.550781 L 149.96875 271.449219 L 160.941406 293.992188 C 164.199219 300.675781 161.40625 308.761719 154.726562 312.015625 Z M 145.605469 262.476562 L 121.023438 273.582031 L 106.488281 243.71875 L 118.035156 240.925781 C 123.214844 239.675781 128.515625 238.851562 133.871094 238.367188 Z M 115.6875 231.234375 L 89.667969 237.519531 L 72.480469 166.414062 L 96.472656 160.601562 C 137.925781 150.582031 174.78125 115.078125 194.609375 92.707031 C 194.429688 94.746094 194.285156 96.847656 194.199219 99.0625 C 193.785156 109.640625 194.460938 121.757812 196.097656 134.699219 C 196.117188 134.882812 196.074219 135.0625 196.113281 135.25 C 196.128906 135.308594 196.175781 135.351562 196.191406 135.414062 C 197.695312 147.117188 199.964844 159.472656 203.003906 172.035156 C 205.980469 184.351562 209.722656 196.914062 214.011719 208.71875 C 214.035156 208.953125 213.980469 209.175781 214.039062 209.410156 C 214.203125 210.085938 214.527344 210.667969 214.921875 211.191406 C 219.839844 224.378906 225.453125 236.476562 231.445312 246.097656 C 204.625 235.460938 157.398438 221.144531 115.6875 231.234375 Z M 206.757812 139.097656 C 214.273438 141.167969 223.191406 151.421875 226.96875 167.039062 C 230.714844 182.554688 227.539062 195.667969 221.855469 201.015625 C 218.59375 191.636719 215.480469 181.214844 212.695312 169.6875 C 210.167969 159.230469 208.195312 148.949219 206.757812 139.097656 Z M 267.261719 228.804688 C 266.535156 247.488281 262.257812 256.808594 258.339844 257.753906 C 258.078125 257.820312 257.808594 257.847656 257.527344 257.847656 C 256.644531 257.847656 255.660156 257.574219 254.59375 257.050781 C 254.175781 256.523438 253.65625 256.070312 253.023438 255.742188 C 252.816406 255.636719 252.277344 255.355469 251.472656 254.957031 C 244.257812 249.007812 234.519531 233.953125 225.472656 210.808594 C 236.710938 203.90625 241.609375 185.15625 236.660156 164.691406 C 231.6875 144.117188 218.699219 129.605469 205.441406 128.742188 C 204.292969 118.144531 203.820312 108.214844 204.160156 99.445312 C 204.878906 80.761719 209.15625 71.445312 213.074219 70.496094 C 213.335938 70.433594 213.605469 70.40625 213.890625 70.40625 C 223.503906 70.40625 245.003906 101.796875 258.722656 158.566406 C 264.976562 184.4375 268.007812 209.378906 267.261719 228.804688 Z M 267.261719 228.804688 " fill-opacity="1" fill-rule="nonzero"/><path fill="#ffffff" d="M 306.5 153.144531 C 304.296875 153.097656 302.3125 151.585938 301.765625 149.34375 C 301.109375 146.671875 302.746094 143.96875 305.421875 143.316406 L 338 135.320312 C 340.667969 134.660156 343.375 136.304688 344.027344 138.976562 C 344.683594 141.648438 343.046875 144.351562 340.375 145.007812 L 307.792969 153 C 307.359375 153.105469 306.925781 153.15625 306.5 153.144531 Z M 306.5 153.144531 " fill-opacity="1" fill-rule="nonzero"/><path fill="#ffffff" d="M 281.816406 98.65625 C 280.480469 98.601562 279.171875 98.003906 278.238281 96.910156 C 276.449219 94.808594 276.707031 91.660156 278.804688 89.878906 L 308.183594 64.894531 C 310.277344 63.113281 313.429688 63.363281 315.207031 65.460938 C 316.996094 67.558594 316.738281 70.707031 314.640625 72.492188 L 285.265625 97.476562 C 284.265625 98.328125 283.03125 98.710938 281.816406 98.65625 Z M 281.816406 98.65625 " fill-opacity="1" fill-rule="nonzero"/><path fill="#ffffff" d="M 350.359375 221.734375 C 349.703125 221.847656 349.011719 221.832031 348.316406 221.660156 L 312.203125 212.738281 C 309.523438 212.078125 307.898438 209.375 308.558594 206.703125 C 309.210938 204.03125 311.90625 202.386719 314.589844 203.0625 L 350.707031 211.984375 C 353.382812 212.640625 355.011719 215.347656 354.351562 218.015625 C 353.867188 220 352.253906 221.410156 350.359375 221.734375 Z M 350.359375 221.734375 " fill-opacity="1" fill-rule="nonzero"/><g clip-path="url(#c80332c535)"><g clip-path="url(#5fbd87ec67)"><path fill="#ffffff" d="M 68.175781 183.601562 L 75.59375 183.601562 L 75.59375 190.875 L 68.175781 190.875 Z M 68.175781 183.601562 " fill-opacity="1" fill-rule="nonzero"/></g></g></svg>