<svg xmlns="http://www.w3.org/2000/svg" xmlns:xlink="http://www.w3.org/1999/xlink" width="500" zoomAndPan="magnify" viewBox="0 0 375 374.999991" height="500" preserveAspectRatio="xMidYMid meet" version="1.0"><defs><g/><clipPath id="2e5071602a"><path d="M 47.691406 180 L 51 180 L 51 184 L 47.691406 184 Z M 47.691406 180 " clip-rule="nonzero"/></clipPath><clipPath id="c7ebb660ff"><path d="M 165 313 L 169 313 L 169 317.738281 L 165 317.738281 Z M 165 313 " clip-rule="nonzero"/></clipPath><clipPath id="5f692a55fd"><path d="M 312 174 L 316.191406 174 L 316.191406 178 L 312 178 Z M 312 174 " clip-rule="nonzero"/></clipPath><clipPath id="f17c8dbcf4"><path d="M 185 49.238281 L 189 49.238281 L 189 53 L 185 53 Z M 185 49.238281 " clip-rule="nonzero"/></clipPath><clipPath id="950989374e"><path d="M 313 182 L 316.191406 182 L 316.191406 187 L 313 187 Z M 313 182 " clip-rule="nonzero"/></clipPath><clipPath id="b5a80593d9"><path d="M 183 314 L 187 314 L 187 317.738281 L 183 317.738281 Z M 183 314 " clip-rule="nonzero"/></clipPath><clipPath id="2ad74df550"><path d="M 177 49.238281 L 181 49.238281 L 181 53 L 177 53 Z M 177 49.238281 " clip-rule="nonzero"/></clipPath><clipPath id="c141f557c2"><path d="M 174 314 L 178 314 L 178 317.738281 L 174 317.738281 Z M 174 314 " clip-rule="nonzero"/></clipPath><clipPath id="7313e43d76"><path d="M 194 49.238281 L 198 49.238281 L 198 54 L 194 54 Z M 194 49.238281 " clip-rule="nonzero"/></clipPath><clipPath id="7a55c14a4e"><path d="M 168 49.238281 L 172 49.238281 L 172 53 L 168 53 Z M 168 49.238281 " clip-rule="nonzero"/></clipPath><clipPath id="5ef94f0cc4"><path d="M 192 314 L 196 314 L 196 317.738281 L 192 317.738281 Z M 192 314 " clip-rule="nonzero"/></clipPath><clipPath id="437f93eaab"><path d="M 47.691406 189 L 51 189 L 51 193 L 47.691406 193 Z M 47.691406 189 " clip-rule="nonzero"/></clipPath><clipPath id="f1042751f2"><path d="M 47.691406 171 L 52 171 L 52 175 L 47.691406 175 Z M 47.691406 171 " clip-rule="nonzero"/></clipPath><clipPath id="d9cfdec3c4"><path d="M 105 110 L 113 110 L 113 118 L 105 118 Z M 105 110 " clip-rule="nonzero"/></clipPath><clipPath id="803c154c3f"><path d="M 114.550781 114.09375 L 109.109375 119.25 L 103.949219 113.804688 L 109.394531 108.648438 Z M 114.550781 114.09375 " clip-rule="nonzero"/></clipPath><clipPath id="14178e2a8f"><path d="M 114.550781 114.09375 L 109.109375 119.25 L 103.949219 113.804688 L 109.394531 108.648438 Z M 114.550781 114.09375 " clip-rule="nonzero"/></clipPath><clipPath id="b65704291e"><path d="M 114.550781 114.09375 L 109.109375 119.25 L 103.949219 113.804688 L 109.394531 108.648438 Z M 114.550781 114.09375 " clip-rule="nonzero"/></clipPath><clipPath id="f69dcfda9c"><path d="M 106.839844 181 L 109 181 L 109 184 L 106.839844 184 Z M 106.839844 181 " clip-rule="nonzero"/></clipPath><clipPath id="9fef97d8e7"><path d="M 172 256 L 175 256 L 175 258.386719 L 172 258.386719 Z M 172 256 " clip-rule="nonzero"/></clipPath><clipPath id="1db441d4bb"><path d="M 254 188 L 256.839844 188 L 256.839844 191 L 254 191 Z M 254 188 " clip-rule="nonzero"/></clipPath><clipPath id="d61d04621b"><path d="M 255 178 L 256.839844 178 L 256.839844 180 L 255 180 Z M 255 178 " clip-rule="nonzero"/></clipPath><clipPath id="52f14ba205"><path d="M 254 173 L 256.839844 173 L 256.839844 175 L 254 175 Z M 254 173 " clip-rule="nonzero"/></clipPath><clipPath id="179a8e6c5f"><path d="M 184 108.386719 L 186 108.386719 L 186 111 L 184 111 Z M 184 108.386719 " clip-rule="nonzero"/></clipPath><clipPath id="3ba9a607a7"><path d="M 255 183 L 256.839844 183 L 256.839844 186 L 255 186 Z M 255 183 " clip-rule="nonzero"/></clipPath><clipPath id="50b254bb17"><path d="M 182 256 L 185 256 L 185 258.386719 L 182 258.386719 Z M 182 256 " clip-rule="nonzero"/></clipPath><clipPath id="9fde39daef"><path d="M 179 108.386719 L 181 108.386719 L 181 111 L 179 111 Z M 179 108.386719 " clip-rule="nonzero"/></clipPath><clipPath id="8661d196d6"><path d="M 177 256 L 180 256 L 180 258.386719 L 177 258.386719 Z M 177 256 " clip-rule="nonzero"/></clipPath><clipPath id="49ba454f6a"><path d="M 188 108.386719 L 191 108.386719 L 191 111 L 188 111 Z M 188 108.386719 " clip-rule="nonzero"/></clipPath><clipPath id="5b21c295ae"><path d="M 254 193 L 256.839844 193 L 256.839844 196 L 254 196 Z M 254 193 " clip-rule="nonzero"/></clipPath><clipPath id="637332941f"><path d="M 174 108.386719 L 176 108.386719 L 176 111 L 174 111 Z M 174 108.386719 " clip-rule="nonzero"/></clipPath><clipPath id="1f450cd15a"><path d="M 187 256 L 190 256 L 190 258.386719 L 187 258.386719 Z M 187 256 " clip-rule="nonzero"/></clipPath><clipPath id="7219b388c7"><path d="M 106.839844 186 L 109 186 L 109 189 L 106.839844 189 Z M 106.839844 186 " clip-rule="nonzero"/></clipPath><clipPath id="d928cef168"><path d="M 106.839844 176 L 109 176 L 109 179 L 106.839844 179 Z M 106.839844 176 " clip-rule="nonzero"/></clipPath><clipPath id="e33d657fda"><path d="M 253 260 L 261 260 L 261 268 L 253 268 Z M 253 260 " clip-rule="nonzero"/></clipPath><clipPath id="4dc48c4f88"><path d="M 262.242188 263.941406 L 256.800781 269.101562 L 251.640625 263.65625 L 257.085938 258.496094 Z M 262.242188 263.941406 " clip-rule="nonzero"/></clipPath><clipPath id="939545c78c"><path d="M 262.242188 263.941406 L 256.800781 269.101562 L 251.640625 263.65625 L 257.085938 258.496094 Z M 262.242188 263.941406 " clip-rule="nonzero"/></clipPath><clipPath id="c088dd61ac"><path d="M 262.242188 263.941406 L 256.800781 269.101562 L 251.640625 263.65625 L 257.085938 258.496094 Z M 262.242188 263.941406 " clip-rule="nonzero"/></clipPath></defs><g fill="#000000" fill-opacity="1"><g transform="translate(126.996271, 113.111063)"><g><path d="M 26.296875 -20.453125 C 26.398438 -20.691406 26.5625 -20.863281 26.78125 -20.96875 C 27 -21.070312 27.207031 -21.070312 27.40625 -20.96875 L 29.859375 -19.453125 C 30.003906 -19.390625 30.09375 -19.238281 30.125 -19 C 30.164062 -18.769531 30.117188 -18.535156 29.984375 -18.296875 C 29.398438 -17.023438 28.648438 -15.816406 27.734375 -14.671875 C 26.816406 -13.535156 25.78125 -12.507812 24.625 -11.59375 C 23.46875 -10.6875 22.25 -9.929688 20.96875 -9.328125 C 18.945312 -8.367188 16.875 -7.753906 14.75 -7.484375 C 12.632812 -7.210938 10.5625 -7.257812 8.53125 -7.625 C 6.5 -7.988281 4.566406 -8.65625 2.734375 -9.625 C 0.910156 -10.601562 -0.726562 -11.847656 -2.1875 -13.359375 C -3.644531 -14.878906 -4.847656 -16.644531 -5.796875 -18.65625 C -6.753906 -20.675781 -7.351562 -22.734375 -7.59375 -24.828125 C -7.84375 -26.921875 -7.765625 -28.976562 -7.359375 -31 C -6.953125 -33.019531 -6.242188 -34.9375 -5.234375 -36.75 C -4.234375 -38.5625 -2.957031 -40.203125 -1.40625 -41.671875 C 0.132812 -43.148438 1.914062 -44.367188 3.9375 -45.328125 C 5.1875 -45.921875 6.53125 -46.375 7.96875 -46.6875 C 9.40625 -47.007812 10.867188 -47.171875 12.359375 -47.171875 C 13.847656 -47.179688 15.300781 -47.003906 16.71875 -46.640625 C 17.0625 -46.566406 17.28125 -46.4375 17.375 -46.25 C 17.476562 -46.070312 17.519531 -45.898438 17.5 -45.734375 L 17.0625 -42.890625 C 17.039062 -42.742188 16.9375 -42.597656 16.75 -42.453125 C 16.570312 -42.316406 16.316406 -42.289062 15.984375 -42.375 C 14.222656 -42.875 12.460938 -43.03125 10.703125 -42.84375 C 8.953125 -42.65625 7.304688 -42.195312 5.765625 -41.46875 C 4.160156 -40.707031 2.742188 -39.75 1.515625 -38.59375 C 0.296875 -37.4375 -0.703125 -36.140625 -1.484375 -34.703125 C -2.273438 -33.273438 -2.832031 -31.765625 -3.15625 -30.171875 C -3.476562 -28.578125 -3.539062 -26.957031 -3.34375 -25.3125 C -3.15625 -23.675781 -2.6875 -22.066406 -1.9375 -20.484375 C -1.195312 -18.898438 -0.253906 -17.507812 0.890625 -16.3125 C 2.046875 -15.125 3.34375 -14.15625 4.78125 -13.40625 C 6.21875 -12.664062 7.738281 -12.148438 9.34375 -11.859375 C 10.957031 -11.566406 12.597656 -11.523438 14.265625 -11.734375 C 15.929688 -11.941406 17.554688 -12.421875 19.140625 -13.171875 C 20.617188 -13.867188 22 -14.851562 23.28125 -16.125 C 24.570312 -17.394531 25.578125 -18.835938 26.296875 -20.453125 Z M 26.296875 -20.453125 "/></g></g></g><g fill="#000000" fill-opacity="1"><g transform="translate(157.200007, 97.254611)"><g><path d="M 35.828125 -40.046875 C 36.265625 -40.054688 36.488281 -39.847656 36.5 -39.421875 L 37.734375 -1.828125 C 37.742188 -1.398438 37.53125 -1.179688 37.09375 -1.171875 L 34.109375 -1.078125 C 33.679688 -1.054688 33.460938 -1.257812 33.453125 -1.6875 L 33.03125 -14.515625 L 9.3125 -13.734375 L 9.734375 -0.90625 C 9.742188 -0.476562 9.535156 -0.257812 9.109375 -0.25 L 6.15625 -0.15625 C 5.707031 -0.132812 5.476562 -0.335938 5.46875 -0.765625 L 4.234375 -38.359375 C 4.222656 -38.785156 4.441406 -39.007812 4.890625 -39.03125 L 7.84375 -39.125 C 8.269531 -39.132812 8.488281 -38.925781 8.5 -38.5 L 9.1875 -17.5 L 32.90625 -18.28125 L 32.21875 -39.28125 C 32.207031 -39.707031 32.414062 -39.929688 32.84375 -39.953125 Z M 35.828125 -40.046875 "/></g></g></g><g fill="#000000" fill-opacity="1"><g transform="translate(196.710909, 97.466212)"><g><path d="M 19.234375 -34.421875 L 9.578125 1.921875 C 9.460938 2.335938 9.1875 2.488281 8.75 2.375 L 5.875 1.609375 C 5.476562 1.503906 5.335938 1.242188 5.453125 0.828125 L 15.109375 -35.515625 C 15.222656 -35.921875 15.476562 -36.070312 15.875 -35.96875 L 18.75 -35.203125 C 19.1875 -35.085938 19.347656 -34.828125 19.234375 -34.421875 Z M 19.234375 -34.421875 "/></g></g></g><g fill="#000000" fill-opacity="1"><g transform="translate(209.625831, 100.75032)"><g/></g></g><g fill="#000000" fill-opacity="1"><g transform="translate(221.558448, 104.430398)"><g><path d="M 13.015625 10.65625 C 11.960938 9.84375 11 8.898438 10.125 7.828125 C 9.257812 6.753906 8.515625 5.609375 7.890625 4.390625 C 7.265625 3.179688 6.800781 1.957031 6.5 0.71875 C 6.195312 -0.507812 6.070312 -1.691406 6.125 -2.828125 C 6.125 -3.054688 6.195312 -3.265625 6.34375 -3.453125 C 6.5 -3.640625 6.71875 -3.734375 7 -3.734375 L 9.5625 -4.0625 C 10.007812 -4.070312 10.265625 -3.75 10.328125 -3.09375 C 10.359375 -1.832031 10.585938 -0.546875 11.015625 0.765625 C 11.453125 2.078125 12.046875 3.300781 12.796875 4.4375 C 13.546875 5.582031 14.40625 6.53125 15.375 7.28125 C 17.675781 9.039062 19.832031 9.910156 21.84375 9.890625 C 23.863281 9.878906 25.535156 9.015625 26.859375 7.296875 C 27.429688 6.546875 27.742188 5.722656 27.796875 4.828125 C 27.847656 3.941406 27.703125 2.992188 27.359375 1.984375 C 27.023438 0.984375 26.546875 -0.0703125 25.921875 -1.1875 C 25.304688 -2.300781 24.613281 -3.476562 23.84375 -4.71875 C 22.894531 -6.1875 22.0625 -7.613281 21.34375 -9 C 20.632812 -10.382812 20.125 -11.722656 19.8125 -13.015625 C 19.5 -14.316406 19.457031 -15.59375 19.6875 -16.84375 C 19.914062 -18.09375 20.492188 -19.320312 21.421875 -20.53125 C 22.617188 -22.09375 24.070312 -23.15625 25.78125 -23.71875 C 27.488281 -24.289062 29.328125 -24.351562 31.296875 -23.90625 C 33.273438 -23.457031 35.257812 -22.46875 37.25 -20.9375 C 38.382812 -20.0625 39.378906 -19.070312 40.234375 -17.96875 C 41.085938 -16.863281 41.757812 -15.71875 42.25 -14.53125 C 42.738281 -13.34375 43 -12.191406 43.03125 -11.078125 C 43.050781 -10.460938 42.804688 -10.097656 42.296875 -9.984375 L 40.109375 -9.5625 C 39.753906 -9.46875 39.488281 -9.515625 39.3125 -9.703125 C 39.144531 -9.898438 39.007812 -10.175781 38.90625 -10.53125 C 38.851562 -11.425781 38.628906 -12.320312 38.234375 -13.21875 C 37.835938 -14.113281 37.328125 -14.953125 36.703125 -15.734375 C 36.078125 -16.515625 35.378906 -17.203125 34.609375 -17.796875 C 33.296875 -18.804688 32.015625 -19.46875 30.765625 -19.78125 C 29.523438 -20.09375 28.382812 -20.085938 27.34375 -19.765625 C 26.3125 -19.441406 25.445312 -18.820312 24.75 -17.90625 C 24.144531 -17.132812 23.8125 -16.289062 23.75 -15.375 C 23.695312 -14.457031 23.835938 -13.492188 24.171875 -12.484375 C 24.503906 -11.484375 24.972656 -10.445312 25.578125 -9.375 C 26.191406 -8.300781 26.851562 -7.203125 27.5625 -6.078125 C 28.4375 -4.734375 29.25 -3.375 30 -2 C 30.757812 -0.625 31.335938 0.738281 31.734375 2.09375 C 32.140625 3.445312 32.257812 4.78125 32.09375 6.09375 C 31.925781 7.414062 31.363281 8.703125 30.40625 9.953125 C 29.019531 11.753906 27.378906 12.984375 25.484375 13.640625 C 23.597656 14.296875 21.582031 14.375 19.4375 13.875 C 17.300781 13.375 15.160156 12.300781 13.015625 10.65625 Z M 13.015625 10.65625 "/></g></g></g><g fill="#000000" fill-opacity="1"><g transform="translate(244.939748, 123.232184)"><g><path d="M 35.921875 -16.265625 L 6.5625 7.234375 C 6.226562 7.503906 5.921875 7.46875 5.640625 7.125 L 3.78125 4.78125 C 3.519531 4.46875 3.554688 4.175781 3.890625 3.90625 L 33.25 -19.59375 C 33.582031 -19.863281 33.878906 -19.84375 34.140625 -19.53125 L 36 -17.1875 C 36.28125 -16.84375 36.253906 -16.535156 35.921875 -16.265625 Z M 35.921875 -16.265625 "/></g></g></g><g fill="#000000" fill-opacity="1"><g transform="translate(254.035413, 131.630384)"><g><path d="M 15.25 32.640625 C 15.0625 32.878906 14.847656 32.984375 14.609375 32.953125 C 14.378906 32.921875 14.203125 32.757812 14.078125 32.46875 L 12.875 29.71875 C 12.800781 29.539062 12.796875 29.359375 12.859375 29.171875 C 12.929688 28.992188 13.039062 28.820312 13.1875 28.65625 L 16.875 24.796875 L 8.25 5.03125 L 2.9375 5.140625 C 2.738281 5.140625 2.539062 5.09375 2.34375 5 C 2.15625 4.90625 2.023438 4.769531 1.953125 4.59375 L 0.765625 1.890625 C 0.640625 1.597656 0.632812 1.363281 0.75 1.1875 C 0.863281 1.007812 1.082031 0.910156 1.40625 0.890625 L 42.234375 0.84375 C 42.753906 0.832031 43.097656 1.023438 43.265625 1.421875 L 43.359375 1.59375 C 43.429688 1.769531 43.4375 1.96875 43.375 2.1875 C 43.320312 2.40625 43.21875 2.59375 43.0625 2.75 Z M 12.3125 4.953125 L 19.703125 21.875 L 36.34375 4.546875 Z M 12.3125 4.953125 "/></g></g></g><g fill="#000000" fill-opacity="1"><g transform="translate(269.480982, 160.868734)"><g><path d="M -0.5 46.953125 C -1.09375 46.984375 -1.378906 46.71875 -1.359375 46.15625 L -1.28125 43.453125 C -1.269531 42.941406 -0.992188 42.664062 -0.453125 42.625 L 26.125 41.015625 L -0.5 26.140625 C -0.726562 26.003906 -0.898438 25.867188 -1.015625 25.734375 C -1.128906 25.609375 -1.179688 25.441406 -1.171875 25.234375 L -1.171875 25.203125 C -1.160156 25.015625 -1.097656 24.859375 -0.984375 24.734375 C -0.867188 24.617188 -0.6875 24.484375 -0.4375 24.328125 L 26.96875 11.046875 L 0.546875 7.921875 C 0.00390625 7.847656 -0.257812 7.5625 -0.25 7.0625 L -0.171875 4.359375 C -0.148438 3.785156 0.148438 3.539062 0.734375 3.625 L 38.390625 8.140625 C 38.835938 8.210938 39.054688 8.460938 39.046875 8.890625 L 39.046875 8.984375 C 39.035156 9.203125 38.976562 9.351562 38.875 9.4375 C 38.769531 9.519531 38.617188 9.613281 38.421875 9.71875 L 6.21875 25.453125 L 37.484375 42.984375 C 37.660156 43.097656 37.800781 43.203125 37.90625 43.296875 C 38.007812 43.398438 38.054688 43.5625 38.046875 43.78125 L 38.046875 43.859375 C 38.035156 44.285156 37.804688 44.515625 37.359375 44.546875 Z M -0.5 46.953125 "/></g></g></g><g fill="#000000" fill-opacity="1"><g transform="translate(268.838107, 206.222539)"><g><path d="M 15.53125 11.796875 C 17.476562 12.878906 19.164062 14.195312 20.59375 15.75 C 22.03125 17.3125 23.175781 19.023438 24.03125 20.890625 C 24.882812 22.765625 25.4375 24.71875 25.6875 26.75 C 25.9375 28.789062 25.863281 30.847656 25.46875 32.921875 C 25.070312 35.003906 24.332031 37.019531 23.25 38.96875 C 22.15625 40.925781 20.828125 42.617188 19.265625 44.046875 C 17.703125 45.484375 15.988281 46.628906 14.125 47.484375 C 12.257812 48.335938 10.304688 48.894531 8.265625 49.15625 C 6.222656 49.414062 4.160156 49.34375 2.078125 48.9375 C 0.00390625 48.539062 -2.003906 47.800781 -3.953125 46.71875 C -5.898438 45.625 -7.585938 44.300781 -9.015625 42.75 C -10.441406 41.195312 -11.570312 39.488281 -12.40625 37.625 C -13.25 35.757812 -13.789062 33.8125 -14.03125 31.78125 C -14.28125 29.75 -14.195312 27.695312 -13.78125 25.625 C -13.375 23.550781 -12.625 21.535156 -11.53125 19.578125 C -10.445312 17.628906 -9.128906 15.9375 -7.578125 14.5 C -6.035156 13.0625 -4.332031 11.910156 -2.46875 11.046875 C -0.613281 10.191406 1.320312 9.628906 3.34375 9.359375 C 5.375 9.097656 7.425781 9.164062 9.5 9.5625 C 11.570312 9.957031 13.582031 10.703125 15.53125 11.796875 Z M 13.453125 15.515625 C 11.921875 14.660156 10.34375 14.078125 8.71875 13.765625 C 7.101562 13.453125 5.492188 13.394531 3.890625 13.59375 C 2.296875 13.800781 0.769531 14.25 -0.6875 14.9375 C -2.15625 15.625 -3.492188 16.53125 -4.703125 17.65625 C -5.921875 18.78125 -6.957031 20.113281 -7.8125 21.65625 C -8.675781 23.195312 -9.269531 24.78125 -9.59375 26.40625 C -9.925781 28.039062 -9.992188 29.65625 -9.796875 31.25 C -9.597656 32.84375 -9.164062 34.375 -8.5 35.84375 C -7.84375 37.320312 -6.957031 38.664062 -5.84375 39.875 C -4.726562 41.09375 -3.40625 42.128906 -1.875 42.984375 C -0.332031 43.835938 1.25 44.421875 2.875 44.734375 C 4.507812 45.054688 6.128906 45.113281 7.734375 44.90625 C 9.347656 44.707031 10.882812 44.269531 12.34375 43.59375 C 13.8125 42.925781 15.15625 42.03125 16.375 40.90625 C 17.601562 39.78125 18.648438 38.445312 19.515625 36.90625 C 20.367188 35.363281 20.953125 33.773438 21.265625 32.140625 C 21.585938 30.515625 21.648438 28.894531 21.453125 27.28125 C 21.253906 25.675781 20.816406 24.132812 20.140625 22.65625 C 19.472656 21.1875 18.578125 19.84375 17.453125 18.625 C 16.328125 17.40625 14.992188 16.367188 13.453125 15.515625 Z M 13.453125 15.515625 "/></g></g></g><g fill="#000000" fill-opacity="1"><g transform="translate(247.128615, 241.648827)"><g/></g></g><g fill="#000000" fill-opacity="1"><g transform="translate(239.625184, 251.490284)"><g><path d="M -25.296875 21.6875 C -25.378906 21.925781 -25.523438 22.101562 -25.734375 22.21875 C -25.953125 22.332031 -26.160156 22.347656 -26.359375 22.265625 L -28.90625 20.875 C -29.050781 20.789062 -29.144531 20.632812 -29.1875 20.40625 C -29.238281 20.175781 -29.203125 19.941406 -29.078125 19.703125 C -28.566406 18.410156 -27.875 17.171875 -27 15.984375 C -26.132812 14.804688 -25.144531 13.734375 -24.03125 12.765625 C -22.925781 11.796875 -21.75 10.976562 -20.5 10.3125 C -18.519531 9.257812 -16.476562 8.546875 -14.375 8.171875 C -12.28125 7.804688 -10.207031 7.753906 -8.15625 8.015625 C -6.101562 8.285156 -4.140625 8.863281 -2.265625 9.75 C -0.398438 10.644531 1.289062 11.8125 2.8125 13.25 C 4.34375 14.6875 5.632812 16.390625 6.6875 18.359375 C 7.738281 20.316406 8.4375 22.335938 8.78125 24.421875 C 9.125 26.503906 9.140625 28.566406 8.828125 30.609375 C 8.523438 32.648438 7.910156 34.597656 6.984375 36.453125 C 6.066406 38.316406 4.867188 40.019531 3.390625 41.5625 C 1.921875 43.101562 0.195312 44.398438 -1.78125 45.453125 C -3 46.109375 -4.316406 46.628906 -5.734375 47.015625 C -7.160156 47.398438 -8.613281 47.628906 -10.09375 47.703125 C -11.582031 47.785156 -13.039062 47.679688 -14.46875 47.390625 C -14.8125 47.316406 -15.035156 47.191406 -15.140625 47.015625 C -15.253906 46.835938 -15.304688 46.671875 -15.296875 46.515625 L -15 43.640625 C -14.988281 43.492188 -14.894531 43.347656 -14.71875 43.203125 C -14.539062 43.054688 -14.28125 43.015625 -13.9375 43.078125 C -12.164062 43.503906 -10.40625 43.578125 -8.65625 43.296875 C -6.90625 43.023438 -5.28125 42.488281 -3.78125 41.6875 C -2.21875 40.851562 -0.851562 39.832031 0.3125 38.625 C 1.476562 37.414062 2.421875 36.078125 3.140625 34.609375 C 3.859375 33.140625 4.34375 31.601562 4.59375 30 C 4.84375 28.394531 4.832031 26.773438 4.5625 25.140625 C 4.289062 23.503906 3.742188 21.914062 2.921875 20.375 C 2.097656 18.820312 1.085938 17.476562 -0.109375 16.34375 C -1.316406 15.21875 -2.65625 14.3125 -4.125 13.625 C -5.601562 12.945312 -7.148438 12.5 -8.765625 12.28125 C -10.390625 12.0625 -12.03125 12.097656 -13.6875 12.390625 C -15.34375 12.679688 -16.945312 13.238281 -18.5 14.0625 C -19.9375 14.832031 -21.265625 15.882812 -22.484375 17.21875 C -23.710938 18.550781 -24.648438 20.039062 -25.296875 21.6875 Z M -25.296875 21.6875 "/></g></g></g><g fill="#000000" fill-opacity="1"><g transform="translate(210.227217, 268.7484)"><g><path d="M -33.859375 41.703125 C -34.296875 41.734375 -34.535156 41.535156 -34.578125 41.109375 L -37.59375 3.625 C -37.625 3.195312 -37.421875 2.96875 -36.984375 2.9375 L -34.015625 2.6875 C -33.585938 2.65625 -33.359375 2.851562 -33.328125 3.28125 L -32.296875 16.0625 L -8.640625 14.15625 L -9.671875 1.375 C -9.703125 0.945312 -9.503906 0.71875 -9.078125 0.6875 L -6.140625 0.453125 C -5.691406 0.410156 -5.453125 0.601562 -5.421875 1.03125 L -2.40625 38.515625 C -2.363281 38.941406 -2.566406 39.175781 -3.015625 39.21875 L -5.953125 39.453125 C -6.378906 39.484375 -6.613281 39.285156 -6.65625 38.859375 L -8.34375 17.921875 L -32 19.828125 L -30.3125 40.765625 C -30.269531 41.191406 -30.460938 41.421875 -30.890625 41.453125 Z M -33.859375 41.703125 "/></g></g></g><g fill="#000000" fill-opacity="1"><g transform="translate(170.755826, 270.411764)"><g><path d="M -17.578125 35.28125 L -9.65625 -1.484375 C -9.5625 -1.898438 -9.296875 -2.054688 -8.859375 -1.953125 L -5.9375 -1.328125 C -5.539062 -1.242188 -5.390625 -0.992188 -5.484375 -0.578125 L -13.40625 36.1875 C -13.5 36.601562 -13.742188 36.769531 -14.140625 36.6875 L -17.0625 36.0625 C -17.5 35.957031 -17.671875 35.695312 -17.578125 35.28125 Z M -17.578125 35.28125 "/></g></g></g><g fill="#000000" fill-opacity="1"><g transform="translate(157.699303, 267.745731)"><g/></g></g><g fill="#000000" fill-opacity="1"><g transform="translate(145.583951, 264.6585)"><g><path d="M -13.515625 -10.015625 C -12.429688 -9.265625 -11.425781 -8.375 -10.5 -7.34375 C -9.582031 -6.3125 -8.78125 -5.203125 -8.09375 -4.015625 C -7.414062 -2.835938 -6.890625 -1.640625 -6.515625 -0.421875 C -6.148438 0.796875 -5.972656 1.972656 -5.984375 3.109375 C -5.972656 3.347656 -6.035156 3.5625 -6.171875 3.75 C -6.316406 3.9375 -6.53125 4.039062 -6.8125 4.0625 L -9.34375 4.515625 C -9.800781 4.546875 -10.082031 4.226562 -10.1875 3.5625 C -10.257812 2.3125 -10.539062 1.046875 -11.03125 -0.234375 C -11.53125 -1.523438 -12.179688 -2.722656 -12.984375 -3.828125 C -13.796875 -4.941406 -14.707031 -5.847656 -15.71875 -6.546875 C -18.09375 -8.203125 -20.285156 -8.96875 -22.296875 -8.84375 C -24.304688 -8.726562 -25.929688 -7.78125 -27.171875 -6 C -27.710938 -5.226562 -27.988281 -4.394531 -28 -3.5 C -28.019531 -2.613281 -27.832031 -1.675781 -27.4375 -0.6875 C -27.039062 0.300781 -26.503906 1.335938 -25.828125 2.421875 C -25.160156 3.503906 -24.414062 4.648438 -23.59375 5.859375 C -22.570312 7.273438 -21.671875 8.65625 -20.890625 10 C -20.117188 11.351562 -19.546875 12.671875 -19.171875 13.953125 C -18.804688 15.234375 -18.707031 16.5 -18.875 17.75 C -19.039062 19.007812 -19.554688 20.265625 -20.421875 21.515625 C -21.546875 23.128906 -22.945312 24.257812 -24.625 24.90625 C -26.300781 25.5625 -28.132812 25.710938 -30.125 25.359375 C -32.113281 25.015625 -34.140625 24.128906 -36.203125 22.703125 C -37.378906 21.878906 -38.421875 20.929688 -39.328125 19.859375 C -40.234375 18.796875 -40.957031 17.679688 -41.5 16.515625 C -42.050781 15.347656 -42.367188 14.210938 -42.453125 13.109375 C -42.492188 12.492188 -42.265625 12.117188 -41.765625 11.984375 L -39.59375 11.453125 C -39.25 11.347656 -38.988281 11.382812 -38.8125 11.5625 C -38.632812 11.75 -38.488281 12.015625 -38.375 12.359375 C -38.269531 13.265625 -37.992188 14.15625 -37.546875 15.03125 C -37.109375 15.90625 -36.5625 16.71875 -35.90625 17.46875 C -35.25 18.21875 -34.523438 18.867188 -33.734375 19.421875 C -32.367188 20.367188 -31.054688 20.96875 -29.796875 21.21875 C -28.535156 21.476562 -27.394531 21.421875 -26.375 21.046875 C -25.351562 20.671875 -24.515625 20.007812 -23.859375 19.0625 C -23.296875 18.257812 -23.007812 17.398438 -23 16.484375 C -22.988281 15.566406 -23.171875 14.613281 -23.546875 13.625 C -23.929688 12.644531 -24.453125 11.628906 -25.109375 10.578125 C -25.773438 9.535156 -26.488281 8.46875 -27.25 7.375 C -28.1875 6.082031 -29.0625 4.765625 -29.875 3.421875 C -30.695312 2.085938 -31.335938 0.753906 -31.796875 -0.578125 C -32.265625 -1.910156 -32.445312 -3.238281 -32.34375 -4.5625 C -32.238281 -5.882812 -31.738281 -7.191406 -30.84375 -8.484375 C -29.550781 -10.347656 -27.972656 -11.648438 -26.109375 -12.390625 C -24.253906 -13.140625 -22.25 -13.316406 -20.09375 -12.921875 C -17.9375 -12.535156 -15.742188 -11.566406 -13.515625 -10.015625 Z M -13.515625 -10.015625 "/></g></g></g><g fill="#000000" fill-opacity="1"><g transform="translate(121.355884, 246.969229)"><g><path d="M -35.109375 17.953125 L -6.90625 -6.921875 C -6.582031 -7.203125 -6.269531 -7.175781 -5.96875 -6.84375 L -4 -4.609375 C -3.726562 -4.296875 -3.753906 -4 -4.078125 -3.71875 L -32.28125 21.15625 C -32.601562 21.4375 -32.898438 21.421875 -33.171875 21.109375 L -35.140625 18.875 C -35.441406 18.539062 -35.429688 18.234375 -35.109375 17.953125 Z M -35.109375 17.953125 "/></g></g></g><g fill="#000000" fill-opacity="1"><g transform="translate(111.849055, 239.035026)"><g><path d="M -16.796875 -31.890625 C -16.617188 -32.128906 -16.410156 -32.238281 -16.171875 -32.21875 C -15.941406 -32.195312 -15.757812 -32.039062 -15.625 -31.75 L -14.296875 -29.0625 C -14.210938 -28.894531 -14.195312 -28.71875 -14.25 -28.53125 C -14.300781 -28.34375 -14.394531 -28.171875 -14.53125 -28.015625 L -18.046875 -23.953125 L -8.484375 -4.625 L -3.1875 -4.984375 C -2.988281 -5.003906 -2.789062 -4.96875 -2.59375 -4.875 C -2.394531 -4.789062 -2.253906 -4.664062 -2.171875 -4.5 L -0.859375 -1.84375 C -0.710938 -1.5625 -0.691406 -1.328125 -0.796875 -1.140625 C -0.910156 -0.953125 -1.128906 -0.84375 -1.453125 -0.8125 L -42.234375 1.171875 C -42.753906 1.203125 -43.109375 1.023438 -43.296875 0.640625 L -43.390625 0.46875 C -43.472656 0.300781 -43.492188 0.109375 -43.453125 -0.109375 C -43.410156 -0.335938 -43.304688 -0.535156 -43.140625 -0.703125 Z M -12.546875 -4.359375 L -20.71875 -20.90625 L -36.5 -2.8125 Z M -12.546875 -4.359375 "/></g></g></g><g fill="#000000" fill-opacity="1"><g transform="translate(95.027858, 210.566765)"><g><path d="M -1.734375 -46.90625 C -1.140625 -46.96875 -0.835938 -46.71875 -0.828125 -46.15625 L -0.78125 -43.453125 C -0.769531 -42.941406 -1.035156 -42.660156 -1.578125 -42.609375 L -28.046875 -39.734375 L -0.75 -26.15625 C -0.507812 -26.019531 -0.328125 -25.890625 -0.203125 -25.765625 C -0.0859375 -25.648438 -0.03125 -25.488281 -0.03125 -25.28125 L -0.03125 -25.25 C -0.0195312 -25.0625 -0.0703125 -24.898438 -0.1875 -24.765625 C -0.300781 -24.640625 -0.476562 -24.5 -0.71875 -24.34375 L -27.484375 -9.75 L -0.921875 -7.890625 C -0.378906 -7.835938 -0.101562 -7.5625 -0.09375 -7.0625 L -0.03125 -4.359375 C -0.0195312 -3.785156 -0.3125 -3.523438 -0.90625 -3.578125 L -38.75 -6.3125 C -39.195312 -6.351562 -39.421875 -6.585938 -39.421875 -7.015625 L -39.4375 -7.109375 C -39.4375 -7.328125 -39.382812 -7.476562 -39.28125 -7.5625 C -39.175781 -7.65625 -39.035156 -7.765625 -38.859375 -7.890625 L -7.421875 -25.140625 L -39.484375 -41.171875 C -39.671875 -41.265625 -39.816406 -41.359375 -39.921875 -41.453125 C -40.035156 -41.546875 -40.09375 -41.695312 -40.09375 -41.90625 L -40.09375 -41.984375 C -40.101562 -42.410156 -39.882812 -42.65625 -39.4375 -42.71875 Z M -1.734375 -46.90625 "/></g></g></g><g fill="#000000" fill-opacity="1"><g transform="translate(93.513389, 165.232858)"><g><path d="M -16.0625 -11.046875 C -18.070312 -12.035156 -19.828125 -13.269531 -21.328125 -14.75 C -22.835938 -16.238281 -24.0625 -17.894531 -25 -19.71875 C -25.945312 -21.550781 -26.59375 -23.476562 -26.9375 -25.5 C -27.28125 -27.53125 -27.300781 -29.59375 -27 -31.6875 C -26.695312 -33.78125 -26.050781 -35.828125 -25.0625 -37.828125 C -24.0625 -39.835938 -22.816406 -41.59375 -21.328125 -43.09375 C -19.847656 -44.59375 -18.195312 -45.8125 -16.375 -46.75 C -14.550781 -47.695312 -12.625 -48.347656 -10.59375 -48.703125 C -8.570312 -49.066406 -6.515625 -49.09375 -4.421875 -48.78125 C -2.328125 -48.476562 -0.273438 -47.832031 1.734375 -46.84375 C 3.734375 -45.84375 5.476562 -44.601562 6.96875 -43.125 C 8.46875 -41.644531 9.679688 -39.992188 10.609375 -38.171875 C 11.535156 -36.347656 12.164062 -34.425781 12.5 -32.40625 C 12.84375 -30.382812 12.859375 -28.332031 12.546875 -26.25 C 12.234375 -24.164062 11.578125 -22.117188 10.578125 -20.109375 C 9.585938 -18.109375 8.351562 -16.351562 6.875 -14.84375 C 5.40625 -13.332031 3.757812 -12.101562 1.9375 -11.15625 C 0.125 -10.207031 -1.785156 -9.550781 -3.796875 -9.1875 C -5.804688 -8.820312 -7.851562 -8.789062 -9.9375 -9.09375 C -12.019531 -9.394531 -14.0625 -10.046875 -16.0625 -11.046875 Z M -14.171875 -14.859375 C -12.609375 -14.078125 -11.007812 -13.566406 -9.375 -13.328125 C -7.738281 -13.097656 -6.128906 -13.117188 -4.546875 -13.390625 C -2.960938 -13.671875 -1.453125 -14.1875 -0.015625 -14.9375 C 1.410156 -15.695312 2.703125 -16.671875 3.859375 -17.859375 C 5.023438 -19.046875 6 -20.425781 6.78125 -22 C 7.570312 -23.582031 8.085938 -25.195312 8.328125 -26.84375 C 8.566406 -28.488281 8.550781 -30.101562 8.28125 -31.6875 C 8.019531 -33.269531 7.523438 -34.78125 6.796875 -36.21875 C 6.066406 -37.65625 5.113281 -38.953125 3.9375 -40.109375 C 2.757812 -41.273438 1.390625 -42.25 -0.171875 -43.03125 C -1.753906 -43.8125 -3.363281 -44.320312 -5 -44.5625 C -6.644531 -44.800781 -8.265625 -44.78125 -9.859375 -44.5 C -11.453125 -44.21875 -12.96875 -43.707031 -14.40625 -42.96875 C -15.84375 -42.226562 -17.144531 -41.265625 -18.3125 -40.078125 C -19.476562 -38.890625 -20.457031 -37.503906 -21.25 -35.921875 C -22.03125 -34.347656 -22.535156 -32.738281 -22.765625 -31.09375 C -23.003906 -29.445312 -22.988281 -27.820312 -22.71875 -26.21875 C -22.445312 -24.625 -21.941406 -23.109375 -21.203125 -21.671875 C -20.460938 -20.242188 -19.5 -18.945312 -18.3125 -17.78125 C -17.132812 -16.613281 -15.753906 -15.640625 -14.171875 -14.859375 Z M -14.171875 -14.859375 "/></g></g></g><path fill="#231f20" d="M 122.824219 304.058594 C 123.722656 304.496094 124.621094 304.925781 125.527344 305.347656 L 126.765625 302.671875 C 125.882812 302.257812 125 301.839844 124.121094 301.40625 L 122.824219 304.058594 " fill-opacity="1" fill-rule="nonzero"/><path fill="#231f20" d="M 107.277344 295.082031 C 108.101562 295.636719 108.941406 296.1875 109.78125 296.722656 L 111.367188 294.234375 C 110.542969 293.707031 109.726562 293.175781 108.921875 292.632812 L 107.277344 295.082031 " fill-opacity="1" fill-rule="nonzero"/><path fill="#231f20" d="M 117.132812 65.886719 L 118.554688 68.46875 C 119.40625 67.996094 120.265625 67.539062 121.125 67.09375 L 119.761719 64.476562 C 118.878906 64.933594 118 65.40625 117.132812 65.886719 " fill-opacity="1" fill-rule="nonzero"/><path fill="#231f20" d="M 114.894531 299.824219 C 115.757812 300.324219 116.632812 300.816406 117.503906 301.296875 L 118.925781 298.710938 C 118.066406 298.238281 117.214844 297.761719 116.371094 297.277344 L 114.894531 299.824219 " fill-opacity="1" fill-rule="nonzero"/><path fill="#231f20" d="M 131.023438 307.75 C 131.945312 308.128906 132.875 308.492188 133.8125 308.851562 L 134.863281 306.101562 C 133.945312 305.746094 133.039062 305.382812 132.136719 305.019531 L 131.023438 307.75 " fill-opacity="1" fill-rule="nonzero"/><path fill="#231f20" d="M 148.058594 313.429688 C 149.023438 313.675781 149.988281 313.914062 150.960938 314.144531 L 151.640625 311.277344 C 150.691406 311.050781 149.742188 310.816406 148.800781 310.570312 L 148.058594 313.429688 " fill-opacity="1" fill-rule="nonzero"/><path fill="#231f20" d="M 159.222656 51.152344 L 159.714844 54.0625 C 160.679688 53.898438 161.640625 53.742188 162.605469 53.605469 L 162.175781 50.683594 C 161.191406 50.828125 160.207031 50.988281 159.222656 51.152344 " fill-opacity="1" fill-rule="nonzero"/><path fill="#231f20" d="M 156.804688 315.386719 C 157.785156 315.574219 158.765625 315.746094 159.75 315.910156 L 160.234375 313 C 159.273438 312.839844 158.316406 312.671875 157.359375 312.488281 L 156.804688 315.386719 " fill-opacity="1" fill-rule="nonzero"/><path fill="#231f20" d="M 141.789062 55.347656 L 142.671875 58.164062 C 143.597656 57.875 144.535156 57.597656 145.472656 57.324219 L 144.652344 54.488281 C 143.695312 54.765625 142.742188 55.046875 141.789062 55.347656 " fill-opacity="1" fill-rule="nonzero"/><path fill="#231f20" d="M 133.324219 58.308594 L 134.394531 61.058594 C 135.304688 60.707031 136.214844 60.363281 137.132812 60.027344 L 136.125 57.257812 C 135.1875 57.597656 134.257812 57.945312 133.324219 58.308594 " fill-opacity="1" fill-rule="nonzero"/><path fill="#231f20" d="M 309.214844 151.148438 L 312.070312 150.421875 C 311.828125 149.457031 311.574219 148.492188 311.304688 147.535156 L 308.464844 148.320312 C 308.726562 149.257812 308.976562 150.199219 309.214844 151.148438 " fill-opacity="1" fill-rule="nonzero"/><path fill="#231f20" d="M 311.078125 159.71875 L 313.984375 159.183594 C 313.800781 158.207031 313.609375 157.226562 313.410156 156.25 L 310.523438 156.851562 C 310.71875 157.800781 310.902344 158.757812 311.078125 159.71875 " fill-opacity="1" fill-rule="nonzero"/><g clip-path="url(#2e5071602a)"><path fill="#231f20" d="M 50.660156 180.816406 L 47.710938 180.757812 C 47.691406 181.667969 47.683594 182.578125 47.683594 183.488281 L 47.683594 183.746094 L 50.636719 183.488281 C 50.636719 182.59375 50.644531 181.710938 50.660156 180.816406 " fill-opacity="1" fill-rule="nonzero"/></g><g clip-path="url(#c7ebb660ff)"><path fill="#231f20" d="M 165.667969 316.757812 C 166.652344 316.878906 167.644531 316.984375 168.636719 317.082031 L 168.929688 314.152344 C 167.953125 314.054688 166.988281 313.949219 166.019531 313.828125 L 165.667969 316.757812 " fill-opacity="1" fill-rule="nonzero"/></g><path fill="#231f20" d="M 99.996094 289.839844 C 100.785156 290.453125 101.578125 291.050781 102.386719 291.640625 L 104.132812 289.265625 C 103.347656 288.6875 102.570312 288.101562 101.796875 287.507812 L 99.996094 289.839844 " fill-opacity="1" fill-rule="nonzero"/><path fill="#231f20" d="M 312.714844 195.171875 L 315.648438 195.429688 C 315.734375 194.4375 315.816406 193.445312 315.882812 192.449219 L 312.9375 192.253906 C 312.871094 193.226562 312.800781 194.199219 312.714844 195.171875 " fill-opacity="1" fill-rule="nonzero"/><g clip-path="url(#5f692a55fd)"><path fill="#231f20" d="M 313.074219 177.132812 L 316.019531 176.992188 C 315.972656 175.996094 315.917969 175 315.847656 174.007812 L 312.902344 174.214844 C 312.972656 175.183594 313.027344 176.160156 313.074219 177.132812 " fill-opacity="1" fill-rule="nonzero"/></g><path fill="#231f20" d="M 312.367188 168.390625 L 315.300781 168.058594 C 315.183594 167.0625 315.0625 166.078125 314.925781 165.089844 L 312 165.488281 C 312.132812 166.449219 312.257812 167.421875 312.367188 168.390625 " fill-opacity="1" fill-rule="nonzero"/><path fill="#231f20" d="M 60.855469 241.539062 C 61.28125 242.4375 61.726562 243.328125 62.171875 244.214844 L 64.804688 242.882812 C 64.363281 242.011719 63.933594 241.140625 63.511719 240.261719 L 60.855469 241.539062 " fill-opacity="1" fill-rule="nonzero"/><path fill="#231f20" d="M 86.558594 277.972656 C 87.261719 278.679688 87.964844 279.378906 88.683594 280.070312 L 90.738281 277.949219 C 90.035156 277.269531 89.339844 276.585938 88.65625 275.894531 L 86.558594 277.972656 " fill-opacity="1" fill-rule="nonzero"/><path fill="#231f20" d="M 95.054688 81.132812 L 96.96875 83.382812 C 97.707031 82.75 98.457031 82.132812 99.214844 81.515625 L 97.351562 79.226562 C 96.582031 79.855469 95.8125 80.492188 95.054688 81.132812 " fill-opacity="1" fill-rule="nonzero"/><path fill="#231f20" d="M 82.199219 93.617188 L 84.390625 95.59375 C 85.046875 94.867188 85.707031 94.152344 86.371094 93.445312 L 84.226562 91.421875 C 83.542969 92.140625 82.867188 92.875 82.199219 93.617188 " fill-opacity="1" fill-rule="nonzero"/><path fill="#231f20" d="M 74.820312 264.4375 C 75.421875 265.226562 76.027344 266.015625 76.644531 266.796875 L 78.960938 264.964844 C 78.359375 264.199219 77.761719 263.429688 77.171875 262.65625 L 74.820312 264.4375 " fill-opacity="1" fill-rule="nonzero"/><g clip-path="url(#f17c8dbcf4)"><path fill="#231f20" d="M 185.921875 52.253906 C 186.898438 52.28125 187.871094 52.320312 188.839844 52.367188 L 188.996094 49.425781 C 188.007812 49.375 187.011719 49.328125 186.011719 49.300781 L 185.921875 52.253906 " fill-opacity="1" fill-rule="nonzero"/></g><path fill="#231f20" d="M 244.710938 68.148438 C 245.566406 68.609375 246.417969 69.085938 247.261719 69.574219 L 248.742188 67.023438 C 247.875 66.519531 247.003906 66.035156 246.121094 65.554688 L 244.710938 68.148438 " fill-opacity="1" fill-rule="nonzero"/><path fill="#231f20" d="M 250.128906 295.707031 L 251.664062 298.222656 C 252.515625 297.703125 253.359375 297.175781 254.195312 296.640625 L 252.605469 294.160156 C 251.785156 294.683594 250.960938 295.199219 250.128906 295.707031 " fill-opacity="1" fill-rule="nonzero"/><path fill="#231f20" d="M 257.457031 290.898438 L 259.148438 293.3125 C 259.964844 292.742188 260.773438 292.15625 261.574219 291.566406 L 259.824219 289.195312 C 259.039062 289.773438 258.25 290.339844 257.457031 290.898438 " fill-opacity="1" fill-rule="nonzero"/><path fill="#231f20" d="M 228.757812 60.789062 C 229.671875 61.136719 230.585938 61.5 231.488281 61.863281 L 232.597656 59.132812 C 231.671875 58.753906 230.742188 58.390625 229.8125 58.03125 L 228.757812 60.789062 " fill-opacity="1" fill-rule="nonzero"/><path fill="#231f20" d="M 259.519531 77.558594 C 260.304688 78.136719 261.089844 78.726562 261.859375 79.316406 L 263.65625 76.980469 C 262.867188 76.375 262.070312 75.773438 261.265625 75.183594 L 259.519531 77.558594 " fill-opacity="1" fill-rule="nonzero"/><path fill="#231f20" d="M 242.507812 300.007812 L 243.871094 302.625 C 244.75 302.160156 245.628906 301.695312 246.496094 301.21875 L 245.082031 298.628906 C 244.226562 299.097656 243.367188 299.554688 242.507812 300.007812 " fill-opacity="1" fill-rule="nonzero"/><path fill="#231f20" d="M 226.484375 307.03125 L 227.488281 309.808594 C 228.425781 309.46875 229.359375 309.121094 230.285156 308.761719 L 229.226562 306.007812 C 228.3125 306.363281 227.40625 306.703125 226.484375 307.03125 " fill-opacity="1" fill-rule="nonzero"/><path fill="#231f20" d="M 297.785156 245.3125 L 300.382812 246.707031 C 300.859375 245.824219 301.320312 244.9375 301.773438 244.046875 L 299.140625 242.714844 C 298.699219 243.582031 298.25 244.453125 297.785156 245.3125 " fill-opacity="1" fill-rule="nonzero"/><g clip-path="url(#950989374e)"><path fill="#231f20" d="M 316.171875 182.976562 L 313.222656 182.976562 L 313.226562 183.488281 C 313.226562 184.464844 313.214844 185.441406 313.195312 186.414062 L 316.144531 186.476562 C 316.164062 185.480469 316.175781 184.488281 316.175781 183.460938 L 316.171875 182.976562 " fill-opacity="1" fill-rule="nonzero"/></g><path fill="#231f20" d="M 283.128906 267.152344 L 285.398438 269.035156 C 286.039062 268.265625 286.660156 267.488281 287.28125 266.707031 L 284.964844 264.878906 C 284.363281 265.644531 283.75 266.398438 283.128906 267.152344 " fill-opacity="1" fill-rule="nonzero"/><path fill="#231f20" d="M 271.074219 279.878906 L 273.082031 282.046875 C 273.808594 281.367188 274.53125 280.683594 275.246094 279.988281 L 273.199219 277.867188 C 272.496094 278.546875 271.792969 279.214844 271.074219 279.878906 " fill-opacity="1" fill-rule="nonzero"/><path fill="#231f20" d="M 277.3125 273.71875 L 279.457031 275.746094 C 280.140625 275.019531 280.8125 274.292969 281.488281 273.554688 L 279.296875 271.570312 C 278.644531 272.292969 277.984375 273.011719 277.3125 273.71875 " fill-opacity="1" fill-rule="nonzero"/><path fill="#231f20" d="M 218.144531 309.726562 L 218.949219 312.5625 C 219.910156 312.289062 220.867188 312.003906 221.820312 311.707031 L 220.941406 308.894531 C 220.015625 309.179688 219.082031 309.460938 218.144531 309.726562 " fill-opacity="1" fill-rule="nonzero"/><g clip-path="url(#b5a80593d9)"><path fill="#231f20" d="M 183.527344 314.777344 L 183.5625 317.726562 C 184.558594 317.71875 185.558594 317.691406 186.550781 317.660156 L 186.445312 314.707031 C 185.476562 314.742188 184.503906 314.765625 183.527344 314.777344 " fill-opacity="1" fill-rule="nonzero"/></g><path fill="#231f20" d="M 220.441406 57.925781 C 221.378906 58.21875 222.308594 58.511719 223.238281 58.820312 L 224.164062 56.023438 C 223.21875 55.707031 222.265625 55.40625 221.304688 55.109375 L 220.441406 57.925781 " fill-opacity="1" fill-rule="nonzero"/><path fill="#231f20" d="M 64.992188 249.480469 C 65.484375 250.34375 65.980469 251.203125 66.492188 252.050781 L 69.027344 250.546875 C 68.53125 249.710938 68.039062 248.867188 67.558594 248.023438 L 64.992188 249.480469 " fill-opacity="1" fill-rule="nonzero"/><g clip-path="url(#2ad74df550)"><path fill="#231f20" d="M 177.050781 49.328125 L 177.152344 52.277344 C 178.128906 52.242188 179.101562 52.222656 180.078125 52.203125 L 180.027344 49.253906 C 179.03125 49.269531 178.039062 49.292969 177.050781 49.328125 " fill-opacity="1" fill-rule="nonzero"/></g><g clip-path="url(#c141f557c2)"><path fill="#231f20" d="M 174.605469 317.535156 C 175.59375 317.589844 176.589844 317.632812 177.589844 317.667969 L 177.683594 314.714844 C 176.707031 314.683594 175.734375 314.644531 174.761719 314.589844 L 174.605469 317.535156 " fill-opacity="1" fill-rule="nonzero"/></g><g clip-path="url(#7313e43d76)"><path fill="#231f20" d="M 194.675781 52.804688 C 195.648438 52.894531 196.617188 53.003906 197.585938 53.117188 L 197.929688 50.1875 C 196.941406 50.070312 195.953125 49.964844 194.960938 49.867188 L 194.675781 52.804688 " fill-opacity="1" fill-rule="nonzero"/></g><path fill="#231f20" d="M 311.652344 203.867188 L 314.570312 204.328125 C 314.722656 203.351562 314.863281 202.359375 314.996094 201.367188 L 312.070312 200.980469 C 311.941406 201.949219 311.804688 202.910156 311.652344 203.867188 " fill-opacity="1" fill-rule="nonzero"/><g clip-path="url(#7a55c14a4e)"><path fill="#231f20" d="M 168.105469 49.945312 L 168.402344 52.878906 C 169.375 52.78125 170.34375 52.6875 171.3125 52.613281 L 171.082031 49.675781 C 170.089844 49.75 169.097656 49.839844 168.105469 49.945312 " fill-opacity="1" fill-rule="nonzero"/></g><path fill="#231f20" d="M 211.972656 55.648438 C 212.925781 55.867188 213.867188 56.101562 214.8125 56.34375 L 215.546875 53.484375 C 214.582031 53.238281 213.617188 52.996094 212.640625 52.773438 L 211.972656 55.648438 " fill-opacity="1" fill-rule="nonzero"/><path fill="#231f20" d="M 203.371094 53.9375 C 204.335938 54.09375 205.292969 54.261719 206.25 54.445312 L 206.796875 51.542969 C 205.820312 51.355469 204.835938 51.1875 203.851562 51.027344 L 203.371094 53.9375 " fill-opacity="1" fill-rule="nonzero"/><path fill="#231f20" d="M 209.632812 311.855469 L 210.257812 314.742188 C 211.230469 314.53125 212.203125 314.308594 213.171875 314.082031 L 212.484375 311.210938 C 211.539062 311.433594 210.589844 311.652344 209.632812 311.855469 " fill-opacity="1" fill-rule="nonzero"/><path fill="#231f20" d="M 201.003906 313.410156 L 201.425781 316.332031 C 202.410156 316.1875 203.398438 316.035156 204.378906 315.871094 L 203.890625 312.960938 C 202.929688 313.117188 201.96875 313.273438 201.003906 313.410156 " fill-opacity="1" fill-rule="nonzero"/><g clip-path="url(#5ef94f0cc4)"><path fill="#231f20" d="M 192.289062 314.382812 L 192.519531 317.324219 C 193.511719 317.246094 194.503906 317.160156 195.496094 317.058594 L 195.203125 314.125 C 194.230469 314.222656 193.257812 314.304688 192.289062 314.382812 " fill-opacity="1" fill-rule="nonzero"/></g><path fill="#231f20" d="M 57.003906 224.011719 L 54.199219 224.921875 C 54.507812 225.871094 54.824219 226.820312 55.152344 227.757812 L 57.9375 226.785156 C 57.617188 225.859375 57.304688 224.941406 57.003906 224.011719 " fill-opacity="1" fill-rule="nonzero"/><path fill="#231f20" d="M 59.984375 232.257812 L 57.25 233.351562 C 57.617188 234.28125 58 235.195312 58.386719 236.113281 L 61.101562 234.945312 C 60.714844 234.054688 60.351562 233.160156 59.984375 232.257812 " fill-opacity="1" fill-rule="nonzero"/><path fill="#231f20" d="M 62.082031 129.777344 L 59.390625 128.574219 C 58.984375 129.484375 58.585938 130.402344 58.199219 131.316406 L 60.910156 132.472656 C 61.292969 131.570312 61.6875 130.671875 62.082031 129.777344 " fill-opacity="1" fill-rule="nonzero"/><g clip-path="url(#437f93eaab)"><path fill="#231f20" d="M 50.773438 189.589844 L 47.828125 189.726562 C 47.871094 190.722656 47.929688 191.71875 47.996094 192.710938 L 50.9375 192.511719 C 50.875 191.539062 50.820312 190.566406 50.773438 189.589844 " fill-opacity="1" fill-rule="nonzero"/></g><g clip-path="url(#f1042751f2)"><path fill="#231f20" d="M 51.125 172.0625 L 48.183594 171.808594 C 48.101562 172.796875 48.023438 173.792969 47.960938 174.789062 L 50.90625 174.976562 C 50.964844 174 51.039062 173.027344 51.125 172.0625 " fill-opacity="1" fill-rule="nonzero"/></g><path fill="#231f20" d="M 58.761719 137.914062 L 55.992188 136.894531 C 55.644531 137.832031 55.308594 138.773438 54.980469 139.71875 L 57.773438 140.679688 C 58.089844 139.75 58.421875 138.832031 58.761719 137.914062 " fill-opacity="1" fill-rule="nonzero"/><path fill="#231f20" d="M 52.167969 163.351562 L 49.253906 162.90625 C 49.101562 163.886719 48.960938 164.871094 48.828125 165.863281 L 51.757812 166.25 C 51.882812 165.28125 52.023438 164.3125 52.167969 163.351562 " fill-opacity="1" fill-rule="nonzero"/><path fill="#231f20" d="M 272.945312 88.851562 C 273.648438 89.53125 274.34375 90.214844 275.027344 90.902344 L 277.117188 88.820312 C 276.417969 88.117188 275.707031 87.417969 274.984375 86.726562 L 272.945312 88.851562 " fill-opacity="1" fill-rule="nonzero"/><path fill="#231f20" d="M 93.074219 284.128906 C 93.824219 284.789062 94.578125 285.441406 95.335938 286.082031 L 97.246094 283.832031 C 96.503906 283.203125 95.761719 282.5625 95.027344 281.914062 L 93.074219 284.128906 " fill-opacity="1" fill-rule="nonzero"/><path fill="#231f20" d="M 55.988281 146.246094 L 53.160156 145.410156 C 52.878906 146.359375 52.605469 147.324219 52.34375 148.285156 L 55.191406 149.058594 C 55.445312 148.117188 55.710938 147.179688 55.988281 146.246094 " fill-opacity="1" fill-rule="nonzero"/><path fill="#231f20" d="M 88.417969 87.164062 L 90.476562 89.277344 C 91.171875 88.597656 91.882812 87.929688 92.597656 87.261719 L 90.585938 85.105469 C 89.855469 85.785156 89.136719 86.46875 88.417969 87.164062 " fill-opacity="1" fill-rule="nonzero"/><path fill="#231f20" d="M 252.273438 72.605469 C 253.09375 73.128906 253.914062 73.664062 254.726562 74.207031 L 256.363281 71.75 C 255.53125 71.195312 254.695312 70.652344 253.855469 70.117188 L 252.273438 72.605469 " fill-opacity="1" fill-rule="nonzero"/><path fill="#231f20" d="M 75.214844 106.976562 L 72.820312 105.257812 C 72.242188 106.070312 71.667969 106.886719 71.101562 107.710938 L 73.535156 109.375 C 74.089844 108.570312 74.648438 107.769531 75.214844 106.976562 " fill-opacity="1" fill-rule="nonzero"/><path fill="#231f20" d="M 70.335938 114.277344 L 67.828125 112.71875 C 67.300781 113.570312 66.78125 114.417969 66.273438 115.28125 L 68.816406 116.777344 C 69.3125 115.941406 69.820312 115.105469 70.335938 114.277344 " fill-opacity="1" fill-rule="nonzero"/><path fill="#231f20" d="M 69.65625 257.113281 C 70.199219 257.949219 70.757812 258.773438 71.324219 259.59375 L 73.75 257.917969 C 73.199219 257.117188 72.65625 256.3125 72.125 255.5 L 69.65625 257.113281 " fill-opacity="1" fill-rule="nonzero"/><path fill="#231f20" d="M 65.953125 121.886719 L 63.34375 120.5 C 62.875 121.382812 62.414062 122.269531 61.96875 123.160156 L 64.601562 124.488281 C 65.042969 123.617188 65.492188 122.75 65.953125 121.886719 " fill-opacity="1" fill-rule="nonzero"/><path fill="#231f20" d="M 125.105469 61.828125 L 126.351562 64.5 C 127.230469 64.089844 128.117188 63.691406 129.011719 63.292969 L 127.816406 60.59375 C 126.910156 60.996094 126.007812 61.40625 125.105469 61.828125 " fill-opacity="1" fill-rule="nonzero"/><path fill="#231f20" d="M 109.445312 70.476562 L 111.042969 72.949219 C 111.859375 72.425781 112.683594 71.910156 113.515625 71.402344 L 111.972656 68.882812 C 111.121094 69.410156 110.28125 69.933594 109.445312 70.476562 " fill-opacity="1" fill-rule="nonzero"/><path fill="#231f20" d="M 139.445312 310.871094 C 140.394531 311.191406 141.351562 311.496094 142.308594 311.792969 L 143.171875 308.972656 C 142.238281 308.683594 141.308594 308.386719 140.386719 308.078125 L 139.445312 310.871094 " fill-opacity="1" fill-rule="nonzero"/><path fill="#231f20" d="M 102.070312 75.566406 L 103.828125 77.933594 C 104.609375 77.355469 105.398438 76.789062 106.195312 76.222656 L 104.488281 73.8125 C 103.675781 74.390625 102.871094 74.972656 102.070312 75.566406 " fill-opacity="1" fill-rule="nonzero"/><path fill="#231f20" d="M 80.457031 271.394531 C 81.113281 272.148438 81.773438 272.890625 82.441406 273.632812 L 84.628906 271.648438 C 83.972656 270.929688 83.324219 270.199219 82.6875 269.460938 L 80.457031 271.394531 " fill-opacity="1" fill-rule="nonzero"/><path fill="#231f20" d="M 54.589844 215.585938 L 51.722656 216.300781 C 51.964844 217.269531 52.21875 218.234375 52.488281 219.195312 L 55.328125 218.410156 C 55.070312 217.472656 54.824219 216.53125 54.589844 215.585938 " fill-opacity="1" fill-rule="nonzero"/><path fill="#231f20" d="M 80.570312 100.023438 L 78.292969 98.144531 C 77.660156 98.914062 77.035156 99.691406 76.417969 100.476562 L 78.730469 102.304688 C 79.335938 101.535156 79.949219 100.777344 80.570312 100.023438 " fill-opacity="1" fill-rule="nonzero"/><path fill="#231f20" d="M 150.433594 52.957031 L 151.125 55.828125 C 152.070312 55.597656 153.019531 55.382812 153.972656 55.179688 L 153.351562 52.292969 C 152.371094 52.503906 151.402344 52.722656 150.433594 52.957031 " fill-opacity="1" fill-rule="nonzero"/><path fill="#231f20" d="M 52.734375 207.011719 L 49.832031 207.535156 C 50.007812 208.519531 50.199219 209.492188 50.394531 210.472656 L 53.289062 209.882812 C 53.089844 208.933594 52.90625 207.96875 52.734375 207.011719 " fill-opacity="1" fill-rule="nonzero"/><path fill="#231f20" d="M 283.222656 95.382812 C 282.570312 94.632812 281.90625 93.890625 281.238281 93.15625 L 279.054688 95.136719 C 279.714844 95.863281 280.355469 96.585938 281 97.324219 L 283.222656 95.382812 " fill-opacity="1" fill-rule="nonzero"/><path fill="#231f20" d="M 53.792969 154.734375 L 50.917969 154.089844 C 50.695312 155.058594 50.488281 156.039062 50.292969 157.015625 L 53.1875 157.59375 C 53.375 156.636719 53.578125 155.683594 53.792969 154.734375 " fill-opacity="1" fill-rule="nonzero"/><path fill="#231f20" d="M 234.617188 303.785156 L 235.796875 306.488281 C 236.710938 306.085938 237.621094 305.679688 238.519531 305.261719 L 237.273438 302.585938 C 236.390625 302.992188 235.507812 303.398438 234.617188 303.785156 " fill-opacity="1" fill-rule="nonzero"/><path fill="#231f20" d="M 51.460938 198.335938 L 48.53125 198.667969 C 48.640625 199.660156 48.765625 200.648438 48.898438 201.632812 L 51.820312 201.234375 C 51.691406 200.273438 51.570312 199.308594 51.460938 198.335938 " fill-opacity="1" fill-rule="nonzero"/><path fill="#231f20" d="M 266.421875 82.988281 C 267.167969 83.617188 267.902344 84.25 268.640625 84.894531 L 270.585938 82.683594 C 269.835938 82.019531 269.082031 81.371094 268.316406 80.730469 L 266.421875 82.988281 " fill-opacity="1" fill-rule="nonzero"/><path fill="#231f20" d="M 236.855469 64.199219 C 237.746094 64.605469 238.628906 65.027344 239.503906 65.457031 L 240.800781 62.804688 C 239.902344 62.367188 239.003906 61.941406 238.09375 61.519531 L 236.855469 64.199219 " fill-opacity="1" fill-rule="nonzero"/><path fill="#231f20" d="M 264.449219 285.613281 L 266.300781 287.914062 C 267.074219 287.289062 267.847656 286.652344 268.605469 286.011719 L 266.699219 283.753906 C 265.953125 284.382812 265.210938 285.003906 264.449219 285.613281 " fill-opacity="1" fill-rule="nonzero"/><path fill="#231f20" d="M 305.007812 229.300781 L 307.773438 230.335938 C 308.121094 229.398438 308.460938 228.460938 308.792969 227.507812 L 306 226.542969 C 305.683594 227.464844 305.347656 228.386719 305.007812 229.300781 " fill-opacity="1" fill-rule="nonzero"/><path fill="#231f20" d="M 307.792969 220.972656 L 310.625 221.820312 C 310.90625 220.859375 311.179688 219.902344 311.445312 218.941406 L 308.597656 218.164062 C 308.34375 219.101562 308.074219 220.039062 307.792969 220.972656 " fill-opacity="1" fill-rule="nonzero"/><path fill="#231f20" d="M 293.386719 252.910156 L 295.886719 254.480469 C 296.417969 253.632812 296.9375 252.78125 297.445312 251.917969 L 294.910156 250.414062 C 294.414062 251.25 293.90625 252.082031 293.386719 252.910156 " fill-opacity="1" fill-rule="nonzero"/><path fill="#231f20" d="M 310.011719 212.488281 L 312.886719 213.136719 C 313.109375 212.167969 313.316406 211.191406 313.519531 210.214844 L 310.625 209.628906 C 310.429688 210.585938 310.226562 211.542969 310.011719 212.488281 " fill-opacity="1" fill-rule="nonzero"/><path fill="#231f20" d="M 303.773438 134.488281 L 306.511719 133.382812 C 306.136719 132.460938 305.757812 131.546875 305.367188 130.632812 L 302.652344 131.796875 C 303.039062 132.6875 303.414062 133.585938 303.773438 134.488281 " fill-opacity="1" fill-rule="nonzero"/><path fill="#231f20" d="M 302.898438 125.210938 C 302.464844 124.3125 302.023438 123.421875 301.570312 122.535156 L 298.945312 123.878906 C 299.382812 124.742188 299.8125 125.613281 300.238281 126.488281 L 302.898438 125.210938 " fill-opacity="1" fill-rule="nonzero"/><path fill="#231f20" d="M 306.78125 142.726562 L 309.578125 141.808594 C 309.273438 140.859375 308.949219 139.917969 308.621094 138.976562 L 305.839844 139.957031 C 306.160156 140.871094 306.472656 141.800781 306.78125 142.726562 " fill-opacity="1" fill-rule="nonzero"/><path fill="#231f20" d="M 301.667969 237.4375 L 304.359375 238.640625 C 304.769531 237.730469 305.167969 236.816406 305.558594 235.894531 L 302.84375 234.746094 C 302.460938 235.644531 302.066406 236.542969 301.667969 237.4375 " fill-opacity="1" fill-rule="nonzero"/><path fill="#231f20" d="M 298.738281 117.273438 C 298.246094 116.410156 297.742188 115.550781 297.234375 114.699219 L 294.703125 116.214844 C 295.203125 117.050781 295.691406 117.890625 296.171875 118.738281 L 298.738281 117.273438 " fill-opacity="1" fill-rule="nonzero"/><path fill="#231f20" d="M 294.054688 109.640625 C 293.507812 108.8125 292.953125 107.992188 292.390625 107.171875 L 289.960938 108.847656 C 290.515625 109.652344 291.058594 110.460938 291.601562 111.273438 L 294.054688 109.640625 " fill-opacity="1" fill-rule="nonzero"/><path fill="#231f20" d="M 288.496094 260.203125 L 290.890625 261.925781 C 291.476562 261.117188 292.050781 260.300781 292.613281 259.480469 L 290.179688 257.808594 C 289.625 258.613281 289.066406 259.410156 288.496094 260.203125 " fill-opacity="1" fill-rule="nonzero"/><path fill="#231f20" d="M 288.882812 102.335938 C 288.28125 101.542969 287.667969 100.757812 287.046875 99.976562 L 284.742188 101.816406 C 285.34375 102.578125 285.941406 103.34375 286.53125 104.117188 L 288.882812 102.335938 " fill-opacity="1" fill-rule="nonzero"/><g clip-path="url(#d9cfdec3c4)"><g clip-path="url(#803c154c3f)"><g clip-path="url(#14178e2a8f)"><g clip-path="url(#b65704291e)"><path fill="#000000" d="M 111.832031 116.671875 C 110.328125 118.09375 107.953125 118.03125 106.527344 116.527344 C 105.105469 115.023438 105.167969 112.652344 106.671875 111.226562 C 108.175781 109.800781 110.550781 109.867188 111.972656 111.371094 C 113.398438 112.875 113.332031 115.246094 111.832031 116.671875 Z M 111.832031 116.671875 " fill-opacity="1" fill-rule="evenodd"/></g></g></g></g><path fill="#231f20" d="M 148.8125 250.742188 C 149.3125 250.988281 149.816406 251.226562 150.324219 251.464844 L 151.015625 249.96875 C 150.519531 249.738281 150.027344 249.503906 149.535156 249.261719 L 148.8125 250.742188 " fill-opacity="1" fill-rule="nonzero"/><path fill="#231f20" d="M 140.125 245.726562 C 140.585938 246.035156 141.054688 246.34375 141.527344 246.644531 L 142.410156 245.253906 C 141.953125 244.960938 141.496094 244.664062 141.042969 244.359375 L 140.125 245.726562 " fill-opacity="1" fill-rule="nonzero"/><path fill="#231f20" d="M 145.632812 117.6875 L 146.425781 119.128906 C 146.902344 118.863281 147.382812 118.609375 147.863281 118.359375 L 147.101562 116.898438 C 146.609375 117.152344 146.117188 117.417969 145.632812 117.6875 " fill-opacity="1" fill-rule="nonzero"/><path fill="#231f20" d="M 144.382812 248.378906 C 144.863281 248.65625 145.351562 248.929688 145.839844 249.199219 L 146.632812 247.753906 C 146.152344 247.492188 145.679688 247.226562 145.207031 246.953125 L 144.382812 248.378906 " fill-opacity="1" fill-rule="nonzero"/><path fill="#231f20" d="M 153.390625 252.804688 C 153.90625 253.015625 154.425781 253.21875 154.949219 253.421875 L 155.539062 251.882812 C 155.027344 251.683594 154.519531 251.484375 154.011719 251.277344 L 153.390625 252.804688 " fill-opacity="1" fill-rule="nonzero"/><path fill="#231f20" d="M 162.910156 255.976562 C 163.449219 256.117188 163.988281 256.25 164.53125 256.378906 L 164.910156 254.773438 C 164.378906 254.648438 163.851562 254.519531 163.324219 254.382812 L 162.910156 255.976562 " fill-opacity="1" fill-rule="nonzero"/><path fill="#231f20" d="M 169.148438 109.453125 L 169.421875 111.078125 C 169.960938 110.988281 170.496094 110.902344 171.035156 110.824219 L 170.796875 109.191406 C 170.246094 109.273438 169.695312 109.363281 169.148438 109.453125 " fill-opacity="1" fill-rule="nonzero"/><path fill="#231f20" d="M 167.796875 257.070312 C 168.34375 257.175781 168.890625 257.273438 169.441406 257.363281 L 169.710938 255.738281 C 169.175781 255.648438 168.640625 255.554688 168.105469 255.453125 L 167.796875 257.070312 " fill-opacity="1" fill-rule="nonzero"/><path fill="#231f20" d="M 159.40625 111.796875 L 159.898438 113.371094 C 160.417969 113.210938 160.941406 113.054688 161.464844 112.902344 L 161.007812 111.316406 C 160.472656 111.472656 159.9375 111.632812 159.40625 111.796875 " fill-opacity="1" fill-rule="nonzero"/><path fill="#231f20" d="M 154.675781 113.453125 L 155.277344 114.988281 C 155.785156 114.792969 156.292969 114.597656 156.804688 114.414062 L 156.242188 112.867188 C 155.71875 113.054688 155.199219 113.25 154.675781 113.453125 " fill-opacity="1" fill-rule="nonzero"/><path fill="#231f20" d="M 252.941406 165.316406 L 254.535156 164.910156 C 254.398438 164.375 254.257812 163.832031 254.109375 163.300781 L 252.523438 163.738281 C 252.667969 164.261719 252.808594 164.789062 252.941406 165.316406 " fill-opacity="1" fill-rule="nonzero"/><path fill="#231f20" d="M 253.980469 170.105469 L 255.605469 169.808594 C 255.503906 169.261719 255.394531 168.710938 255.285156 168.167969 L 253.671875 168.503906 C 253.78125 169.035156 253.882812 169.570312 253.980469 170.105469 " fill-opacity="1" fill-rule="nonzero"/><g clip-path="url(#f69dcfda9c)"><path fill="#231f20" d="M 108.496094 181.894531 L 106.847656 181.859375 C 106.839844 182.367188 106.835938 182.875 106.835938 183.386719 L 106.835938 183.527344 L 108.484375 183.386719 C 108.484375 182.886719 108.488281 182.390625 108.496094 181.894531 " fill-opacity="1" fill-rule="nonzero"/></g><g clip-path="url(#9fef97d8e7)"><path fill="#231f20" d="M 172.746094 257.835938 C 173.296875 257.90625 173.851562 257.964844 174.40625 258.019531 L 174.566406 256.382812 C 174.023438 256.324219 173.484375 256.265625 172.945312 256.203125 L 172.746094 257.835938 " fill-opacity="1" fill-rule="nonzero"/></g><path fill="#231f20" d="M 136.058594 242.800781 C 136.5 243.140625 136.941406 243.476562 137.394531 243.804688 L 138.371094 242.480469 C 137.929688 242.15625 137.496094 241.828125 137.066406 241.496094 L 136.058594 242.800781 " fill-opacity="1" fill-rule="nonzero"/><g clip-path="url(#1db441d4bb)"><path fill="#231f20" d="M 254.894531 189.910156 L 256.535156 190.054688 C 256.582031 189.503906 256.628906 188.949219 256.667969 188.390625 L 255.019531 188.28125 C 254.984375 188.824219 254.941406 189.371094 254.894531 189.910156 " fill-opacity="1" fill-rule="nonzero"/></g><g clip-path="url(#d61d04621b)"><path fill="#231f20" d="M 255.097656 179.835938 L 256.742188 179.757812 C 256.714844 179.199219 256.683594 178.644531 256.648438 178.089844 L 255 178.203125 C 255.039062 178.746094 255.070312 179.289062 255.097656 179.835938 " fill-opacity="1" fill-rule="nonzero"/></g><g clip-path="url(#52f14ba205)"><path fill="#231f20" d="M 254.703125 174.953125 L 256.339844 174.765625 C 256.273438 174.207031 256.207031 173.65625 256.132812 173.105469 L 254.496094 173.328125 C 254.570312 173.867188 254.640625 174.410156 254.703125 174.953125 " fill-opacity="1" fill-rule="nonzero"/></g><path fill="#231f20" d="M 114.191406 215.816406 C 114.429688 216.316406 114.679688 216.8125 114.925781 217.308594 L 116.398438 216.566406 C 116.152344 216.082031 115.910156 215.59375 115.675781 215.101562 L 114.191406 215.816406 " fill-opacity="1" fill-rule="nonzero"/><path fill="#231f20" d="M 128.550781 236.171875 C 128.945312 236.5625 129.339844 236.957031 129.738281 237.339844 L 130.886719 236.15625 C 130.492188 235.777344 130.105469 235.394531 129.722656 235.007812 L 128.550781 236.171875 " fill-opacity="1" fill-rule="nonzero"/><path fill="#231f20" d="M 133.296875 126.203125 L 134.367188 127.460938 C 134.78125 127.105469 135.199219 126.761719 135.621094 126.417969 L 134.582031 125.140625 C 134.152344 125.488281 133.722656 125.84375 133.296875 126.203125 " fill-opacity="1" fill-rule="nonzero"/><path fill="#231f20" d="M 126.117188 133.175781 L 127.339844 134.28125 C 127.707031 133.875 128.074219 133.476562 128.445312 133.082031 L 127.25 131.953125 C 126.867188 132.351562 126.492188 132.761719 126.117188 133.175781 " fill-opacity="1" fill-rule="nonzero"/><path fill="#231f20" d="M 121.996094 228.605469 C 122.332031 229.050781 122.667969 229.488281 123.015625 229.925781 L 124.308594 228.902344 C 123.972656 228.476562 123.636719 228.046875 123.308594 227.613281 L 121.996094 228.605469 " fill-opacity="1" fill-rule="nonzero"/><g clip-path="url(#179a8e6c5f)"><path fill="#231f20" d="M 184.0625 110.070312 C 184.609375 110.085938 185.152344 110.105469 185.691406 110.132812 L 185.78125 108.488281 C 185.226562 108.460938 184.671875 108.4375 184.109375 108.417969 L 184.0625 110.070312 " fill-opacity="1" fill-rule="nonzero"/></g><path fill="#231f20" d="M 216.90625 118.949219 C 217.382812 119.207031 217.859375 119.472656 218.328125 119.746094 L 219.15625 118.320312 C 218.671875 118.039062 218.183594 117.769531 217.695312 117.5 L 216.90625 118.949219 " fill-opacity="1" fill-rule="nonzero"/><path fill="#231f20" d="M 219.933594 246.074219 L 220.789062 247.480469 C 221.265625 247.191406 221.734375 246.898438 222.203125 246.597656 L 221.3125 245.210938 C 220.859375 245.503906 220.398438 245.792969 219.933594 246.074219 " fill-opacity="1" fill-rule="nonzero"/><path fill="#231f20" d="M 224.027344 243.390625 L 224.972656 244.738281 C 225.425781 244.421875 225.878906 244.09375 226.324219 243.765625 L 225.347656 242.4375 C 224.910156 242.761719 224.46875 243.078125 224.027344 243.390625 " fill-opacity="1" fill-rule="nonzero"/><path fill="#231f20" d="M 207.992188 114.835938 C 208.503906 115.03125 209.011719 115.234375 209.519531 115.4375 L 210.136719 113.914062 C 209.621094 113.699219 209.101562 113.5 208.582031 113.296875 L 207.992188 114.835938 " fill-opacity="1" fill-rule="nonzero"/><path fill="#231f20" d="M 225.179688 124.207031 C 225.617188 124.53125 226.054688 124.859375 226.484375 125.1875 L 227.488281 123.882812 C 227.046875 123.546875 226.601562 123.210938 226.152344 122.878906 L 225.179688 124.207031 " fill-opacity="1" fill-rule="nonzero"/><path fill="#231f20" d="M 215.675781 248.480469 L 216.4375 249.941406 C 216.925781 249.679688 217.417969 249.421875 217.902344 249.15625 L 217.113281 247.710938 C 216.632812 247.96875 216.152344 248.226562 215.675781 248.480469 " fill-opacity="1" fill-rule="nonzero"/><path fill="#231f20" d="M 206.722656 252.402344 L 207.28125 253.953125 C 207.808594 253.765625 208.328125 253.570312 208.847656 253.371094 L 208.253906 251.832031 C 207.746094 252.027344 207.238281 252.21875 206.722656 252.402344 " fill-opacity="1" fill-rule="nonzero"/><path fill="#231f20" d="M 246.554688 217.921875 L 248.007812 218.703125 C 248.273438 218.210938 248.53125 217.714844 248.785156 217.214844 L 247.3125 216.472656 C 247.066406 216.957031 246.8125 217.441406 246.554688 217.921875 " fill-opacity="1" fill-rule="nonzero"/><g clip-path="url(#3ba9a607a7)"><path fill="#231f20" d="M 256.828125 183.097656 L 255.179688 183.097656 L 255.183594 183.386719 C 255.183594 183.929688 255.175781 184.476562 255.164062 185.019531 L 256.8125 185.054688 C 256.824219 184.5 256.828125 183.945312 256.828125 183.371094 L 256.828125 183.097656 " fill-opacity="1" fill-rule="nonzero"/></g><path fill="#231f20" d="M 238.367188 230.125 L 239.636719 231.175781 C 239.992188 230.746094 240.339844 230.3125 240.6875 229.875 L 239.394531 228.855469 C 239.058594 229.28125 238.714844 229.703125 238.367188 230.125 " fill-opacity="1" fill-rule="nonzero"/><path fill="#231f20" d="M 231.632812 237.234375 L 232.753906 238.445312 C 233.160156 238.066406 233.566406 237.683594 233.964844 237.296875 L 232.820312 236.109375 C 232.429688 236.488281 232.035156 236.863281 231.632812 237.234375 " fill-opacity="1" fill-rule="nonzero"/><path fill="#231f20" d="M 235.117188 233.792969 L 236.316406 234.925781 C 236.695312 234.519531 237.074219 234.113281 237.449219 233.699219 L 236.226562 232.59375 C 235.863281 232.996094 235.492188 233.398438 235.117188 233.792969 " fill-opacity="1" fill-rule="nonzero"/><path fill="#231f20" d="M 202.0625 253.910156 L 202.511719 255.492188 C 203.050781 255.339844 203.582031 255.183594 204.117188 255.015625 L 203.625 253.445312 C 203.109375 253.605469 202.585938 253.761719 202.0625 253.910156 " fill-opacity="1" fill-rule="nonzero"/><g clip-path="url(#50b254bb17)"><path fill="#231f20" d="M 182.726562 256.730469 L 182.746094 258.378906 C 183.300781 258.375 183.859375 258.359375 184.414062 258.339844 L 184.355469 256.691406 C 183.8125 256.710938 183.269531 256.726562 182.726562 256.730469 " fill-opacity="1" fill-rule="nonzero"/></g><path fill="#231f20" d="M 203.347656 113.238281 C 203.871094 113.402344 204.390625 113.566406 204.910156 113.738281 L 205.425781 112.175781 C 204.898438 112 204.363281 111.832031 203.828125 111.664062 L 203.347656 113.238281 " fill-opacity="1" fill-rule="nonzero"/><path fill="#231f20" d="M 116.503906 220.25 C 116.78125 220.734375 117.054688 221.214844 117.339844 221.6875 L 118.757812 220.847656 C 118.480469 220.378906 118.207031 219.910156 117.9375 219.4375 L 116.503906 220.25 " fill-opacity="1" fill-rule="nonzero"/><g clip-path="url(#9fde39daef)"><path fill="#231f20" d="M 179.105469 108.433594 L 179.164062 110.082031 C 179.707031 110.0625 180.25 110.050781 180.796875 110.039062 L 180.769531 108.394531 C 180.210938 108.402344 179.660156 108.414062 179.105469 108.433594 " fill-opacity="1" fill-rule="nonzero"/></g><g clip-path="url(#8661d196d6)"><path fill="#231f20" d="M 177.742188 258.269531 C 178.292969 258.300781 178.847656 258.328125 179.410156 258.34375 L 179.457031 256.695312 C 178.914062 256.679688 178.371094 256.65625 177.828125 256.625 L 177.742188 258.269531 " fill-opacity="1" fill-rule="nonzero"/></g><g clip-path="url(#49ba454f6a)"><path fill="#231f20" d="M 188.953125 110.378906 C 189.496094 110.429688 190.039062 110.488281 190.578125 110.550781 L 190.769531 108.914062 C 190.21875 108.851562 189.664062 108.792969 189.109375 108.734375 L 188.953125 110.378906 " fill-opacity="1" fill-rule="nonzero"/></g><g clip-path="url(#5b21c295ae)"><path fill="#231f20" d="M 254.304688 194.769531 L 255.933594 195.027344 C 256.015625 194.480469 256.097656 193.925781 256.171875 193.371094 L 254.535156 193.15625 C 254.464844 193.699219 254.386719 194.234375 254.304688 194.769531 " fill-opacity="1" fill-rule="nonzero"/></g><g clip-path="url(#637332941f)"><path fill="#231f20" d="M 174.109375 108.78125 L 174.273438 110.417969 C 174.816406 110.363281 175.359375 110.3125 175.902344 110.269531 L 175.773438 108.628906 C 175.21875 108.671875 174.664062 108.722656 174.109375 108.78125 " fill-opacity="1" fill-rule="nonzero"/></g><path fill="#231f20" d="M 198.613281 111.964844 C 199.148438 112.089844 199.675781 112.21875 200.203125 112.355469 L 200.613281 110.757812 C 200.074219 110.617188 199.535156 110.484375 198.988281 110.359375 L 198.613281 111.964844 " fill-opacity="1" fill-rule="nonzero"/><path fill="#231f20" d="M 193.808594 111.011719 C 194.347656 111.097656 194.882812 111.191406 195.417969 111.292969 L 195.722656 109.671875 C 195.179688 109.570312 194.628906 109.472656 194.078125 109.382812 L 193.808594 111.011719 " fill-opacity="1" fill-rule="nonzero"/><path fill="#231f20" d="M 197.308594 255.097656 L 197.65625 256.710938 C 198.199219 256.59375 198.742188 256.46875 199.285156 256.339844 L 198.902344 254.738281 C 198.375 254.863281 197.84375 254.984375 197.308594 255.097656 " fill-opacity="1" fill-rule="nonzero"/><path fill="#231f20" d="M 192.488281 255.96875 L 192.722656 257.597656 C 193.273438 257.519531 193.824219 257.433594 194.375 257.339844 L 194.101562 255.714844 C 193.5625 255.804688 193.027344 255.890625 192.488281 255.96875 " fill-opacity="1" fill-rule="nonzero"/><g clip-path="url(#1f450cd15a)"><path fill="#231f20" d="M 187.617188 256.511719 L 187.746094 258.152344 C 188.300781 258.109375 188.855469 258.0625 189.410156 258.003906 L 189.246094 256.367188 C 188.703125 256.421875 188.160156 256.46875 187.617188 256.511719 " fill-opacity="1" fill-rule="nonzero"/></g><path fill="#231f20" d="M 112.039062 206.023438 L 110.472656 206.53125 C 110.644531 207.0625 110.824219 207.59375 111.007812 208.117188 L 112.5625 207.570312 C 112.382812 207.054688 112.210938 206.542969 112.039062 206.023438 " fill-opacity="1" fill-rule="nonzero"/><path fill="#231f20" d="M 113.707031 210.628906 L 112.179688 211.242188 C 112.382812 211.761719 112.597656 212.273438 112.8125 212.785156 L 114.328125 212.132812 C 114.113281 211.632812 113.910156 211.136719 113.707031 210.628906 " fill-opacity="1" fill-rule="nonzero"/><path fill="#231f20" d="M 114.878906 153.378906 L 113.375 152.707031 C 113.148438 153.214844 112.925781 153.726562 112.707031 154.238281 L 114.222656 154.882812 C 114.4375 154.378906 114.65625 153.878906 114.878906 153.378906 " fill-opacity="1" fill-rule="nonzero"/><g clip-path="url(#7219b388c7)"><path fill="#231f20" d="M 108.558594 186.792969 L 106.914062 186.871094 C 106.941406 187.425781 106.972656 187.984375 107.007812 188.535156 L 108.652344 188.425781 C 108.617188 187.882812 108.585938 187.339844 108.558594 186.792969 " fill-opacity="1" fill-rule="nonzero"/></g><g clip-path="url(#d928cef168)"><path fill="#231f20" d="M 108.757812 177 L 107.113281 176.859375 C 107.066406 177.414062 107.023438 177.96875 106.988281 178.523438 L 108.632812 178.628906 C 108.667969 178.085938 108.710938 177.542969 108.757812 177 " fill-opacity="1" fill-rule="nonzero"/></g><path fill="#231f20" d="M 113.023438 157.925781 L 111.476562 157.355469 C 111.28125 157.878906 111.09375 158.402344 110.910156 158.933594 L 112.46875 159.46875 C 112.648438 158.949219 112.832031 158.4375 113.023438 157.925781 " fill-opacity="1" fill-rule="nonzero"/><path fill="#231f20" d="M 109.339844 172.136719 L 107.710938 171.886719 C 107.625 172.433594 107.546875 172.984375 107.472656 173.539062 L 109.109375 173.753906 C 109.179688 173.214844 109.257812 172.671875 109.339844 172.136719 " fill-opacity="1" fill-rule="nonzero"/><path fill="#231f20" d="M 232.675781 130.515625 C 233.070312 130.894531 233.460938 131.277344 233.839844 131.660156 L 235.011719 130.5 C 234.617188 130.105469 234.222656 129.714844 233.816406 129.328125 L 232.675781 130.515625 " fill-opacity="1" fill-rule="nonzero"/><path fill="#231f20" d="M 132.191406 239.609375 C 132.609375 239.976562 133.03125 240.339844 133.457031 240.699219 L 134.523438 239.441406 C 134.105469 239.089844 133.691406 238.734375 133.28125 238.371094 L 132.191406 239.609375 " fill-opacity="1" fill-rule="nonzero"/><path fill="#231f20" d="M 111.472656 162.578125 L 109.894531 162.113281 C 109.734375 162.644531 109.585938 163.179688 109.4375 163.71875 L 111.027344 164.148438 C 111.171875 163.625 111.320312 163.101562 111.472656 162.578125 " fill-opacity="1" fill-rule="nonzero"/><path fill="#231f20" d="M 129.589844 129.570312 L 130.742188 130.753906 C 131.128906 130.375 131.527344 130 131.925781 129.625 L 130.800781 128.421875 C 130.394531 128.800781 129.992188 129.183594 129.589844 129.570312 " fill-opacity="1" fill-rule="nonzero"/><path fill="#231f20" d="M 221.128906 121.441406 C 221.589844 121.734375 222.046875 122.03125 222.5 122.332031 L 223.414062 120.960938 C 222.949219 120.652344 222.484375 120.347656 222.015625 120.046875 L 221.128906 121.441406 " fill-opacity="1" fill-rule="nonzero"/><path fill="#231f20" d="M 122.214844 140.640625 L 120.878906 139.679688 C 120.554688 140.132812 120.234375 140.589844 119.917969 141.050781 L 121.277344 141.980469 C 121.585938 141.53125 121.898438 141.085938 122.214844 140.640625 " fill-opacity="1" fill-rule="nonzero"/><path fill="#231f20" d="M 119.488281 144.71875 L 118.085938 143.847656 C 117.792969 144.324219 117.503906 144.796875 117.21875 145.28125 L 118.640625 146.117188 C 118.917969 145.648438 119.199219 145.183594 119.488281 144.71875 " fill-opacity="1" fill-rule="nonzero"/><path fill="#231f20" d="M 119.109375 224.515625 C 119.414062 224.984375 119.722656 225.441406 120.039062 225.902344 L 121.394531 224.964844 C 121.089844 224.519531 120.785156 224.066406 120.488281 223.613281 L 119.109375 224.515625 " fill-opacity="1" fill-rule="nonzero"/><path fill="#231f20" d="M 117.039062 148.96875 L 115.582031 148.195312 C 115.320312 148.691406 115.0625 149.183594 114.816406 149.683594 L 116.285156 150.421875 C 116.53125 149.9375 116.78125 149.453125 117.039062 148.96875 " fill-opacity="1" fill-rule="nonzero"/><path fill="#231f20" d="M 150.085938 115.417969 L 150.78125 116.910156 C 151.273438 116.683594 151.769531 116.460938 152.269531 116.238281 L 151.601562 114.730469 C 151.09375 114.953125 150.589844 115.183594 150.085938 115.417969 " fill-opacity="1" fill-rule="nonzero"/><path fill="#231f20" d="M 141.335938 120.25 L 142.230469 121.632812 C 142.6875 121.335938 143.148438 121.050781 143.609375 120.765625 L 142.75 119.359375 C 142.273438 119.652344 141.804688 119.949219 141.335938 120.25 " fill-opacity="1" fill-rule="nonzero"/><path fill="#231f20" d="M 158.097656 254.546875 C 158.628906 254.726562 159.160156 254.898438 159.695312 255.0625 L 160.179688 253.488281 C 159.65625 253.328125 159.136719 253.160156 158.621094 252.988281 L 158.097656 254.546875 " fill-opacity="1" fill-rule="nonzero"/><path fill="#231f20" d="M 137.21875 123.09375 L 138.199219 124.417969 C 138.636719 124.09375 139.078125 123.777344 139.519531 123.460938 L 138.570312 122.113281 C 138.113281 122.4375 137.664062 122.761719 137.21875 123.09375 " fill-opacity="1" fill-rule="nonzero"/><path fill="#231f20" d="M 125.144531 232.492188 C 125.507812 232.914062 125.878906 233.332031 126.253906 233.746094 L 127.472656 232.636719 C 127.105469 232.234375 126.746094 231.828125 126.390625 231.414062 L 125.144531 232.492188 " fill-opacity="1" fill-rule="nonzero"/><path fill="#231f20" d="M 110.691406 201.316406 L 109.089844 201.71875 C 109.226562 202.257812 109.367188 202.796875 109.519531 203.332031 L 111.105469 202.894531 C 110.960938 202.371094 110.824219 201.84375 110.691406 201.316406 " fill-opacity="1" fill-rule="nonzero"/><path fill="#231f20" d="M 125.207031 136.757812 L 123.933594 135.707031 C 123.582031 136.136719 123.230469 136.570312 122.886719 137.007812 L 124.179688 138.03125 C 124.519531 137.601562 124.859375 137.175781 125.207031 136.757812 " fill-opacity="1" fill-rule="nonzero"/><path fill="#231f20" d="M 164.238281 110.460938 L 164.621094 112.066406 C 165.148438 111.9375 165.679688 111.820312 166.214844 111.703125 L 165.867188 110.089844 C 165.320312 110.207031 164.777344 110.332031 164.238281 110.460938 " fill-opacity="1" fill-rule="nonzero"/><path fill="#231f20" d="M 109.65625 196.527344 L 108.035156 196.820312 C 108.132812 197.367188 108.238281 197.914062 108.347656 198.460938 L 109.964844 198.132812 C 109.855469 197.597656 109.753906 197.0625 109.65625 196.527344 " fill-opacity="1" fill-rule="nonzero"/><path fill="#231f20" d="M 238.421875 134.164062 C 238.054688 133.746094 237.683594 133.332031 237.3125 132.921875 L 236.09375 134.027344 C 236.460938 134.429688 236.820312 134.835938 237.179688 135.25 L 238.421875 134.164062 " fill-opacity="1" fill-rule="nonzero"/><path fill="#231f20" d="M 110.246094 167.320312 L 108.640625 166.960938 C 108.515625 167.503906 108.402344 168.050781 108.292969 168.597656 L 109.910156 168.917969 C 110.015625 168.382812 110.125 167.851562 110.246094 167.320312 " fill-opacity="1" fill-rule="nonzero"/><path fill="#231f20" d="M 211.265625 250.589844 L 211.925781 252.097656 C 212.433594 251.875 212.945312 251.648438 213.445312 251.414062 L 212.75 249.921875 C 212.257812 250.148438 211.761719 250.371094 211.265625 250.589844 " fill-opacity="1" fill-rule="nonzero"/><path fill="#231f20" d="M 108.945312 191.679688 L 107.308594 191.863281 C 107.371094 192.417969 107.4375 192.972656 107.511719 193.519531 L 109.144531 193.300781 C 109.074219 192.761719 109.003906 192.222656 108.945312 191.679688 " fill-opacity="1" fill-rule="nonzero"/><path fill="#231f20" d="M 229.035156 127.238281 C 229.449219 127.589844 229.863281 127.945312 230.273438 128.304688 L 231.359375 127.070312 C 230.941406 126.699219 230.519531 126.335938 230.09375 125.976562 L 229.035156 127.238281 " fill-opacity="1" fill-rule="nonzero"/><path fill="#231f20" d="M 212.515625 116.742188 C 213.015625 116.96875 213.507812 117.207031 213.996094 117.445312 L 214.71875 115.964844 C 214.21875 115.71875 213.714844 115.480469 213.207031 115.246094 L 212.515625 116.742188 " fill-opacity="1" fill-rule="nonzero"/><path fill="#231f20" d="M 227.933594 240.4375 L 228.964844 241.722656 C 229.398438 241.375 229.828125 241.019531 230.253906 240.660156 L 229.1875 239.398438 C 228.773438 239.75 228.355469 240.097656 227.933594 240.4375 " fill-opacity="1" fill-rule="nonzero"/><path fill="#231f20" d="M 250.589844 208.976562 L 252.136719 209.554688 C 252.332031 209.035156 252.519531 208.507812 252.703125 207.976562 L 251.144531 207.4375 C 250.96875 207.953125 250.78125 208.46875 250.589844 208.976562 " fill-opacity="1" fill-rule="nonzero"/><path fill="#231f20" d="M 252.144531 204.324219 L 253.726562 204.800781 C 253.886719 204.261719 254.039062 203.726562 254.1875 203.191406 L 252.59375 202.757812 C 252.453125 203.28125 252.304688 203.804688 252.144531 204.324219 " fill-opacity="1" fill-rule="nonzero"/><path fill="#231f20" d="M 244.097656 222.167969 L 245.496094 223.042969 C 245.792969 222.574219 246.082031 222.09375 246.367188 221.613281 L 244.949219 220.773438 C 244.671875 221.242188 244.390625 221.707031 244.097656 222.167969 " fill-opacity="1" fill-rule="nonzero"/><path fill="#231f20" d="M 253.386719 199.585938 L 254.992188 199.949219 C 255.117188 199.40625 255.234375 198.863281 255.34375 198.316406 L 253.726562 197.988281 C 253.617188 198.523438 253.507812 199.058594 253.386719 199.585938 " fill-opacity="1" fill-rule="nonzero"/><path fill="#231f20" d="M 249.902344 156.011719 L 251.429688 155.394531 C 251.21875 154.878906 251.007812 154.367188 250.792969 153.855469 L 249.277344 154.507812 C 249.488281 155.003906 249.699219 155.507812 249.902344 156.011719 " fill-opacity="1" fill-rule="nonzero"/><path fill="#231f20" d="M 249.410156 150.828125 C 249.171875 150.324219 248.921875 149.828125 248.671875 149.332031 L 247.203125 150.082031 C 247.449219 150.566406 247.6875 151.054688 247.925781 151.539062 L 249.410156 150.828125 " fill-opacity="1" fill-rule="nonzero"/><path fill="#231f20" d="M 251.582031 160.613281 L 253.144531 160.097656 C 252.972656 159.570312 252.792969 159.042969 252.609375 158.519531 L 251.054688 159.066406 C 251.234375 159.578125 251.410156 160.09375 251.582031 160.613281 " fill-opacity="1" fill-rule="nonzero"/><path fill="#231f20" d="M 248.726562 213.523438 L 250.226562 214.195312 C 250.457031 213.6875 250.679688 213.175781 250.898438 212.664062 L 249.382812 212.019531 C 249.167969 212.523438 248.945312 213.023438 248.726562 213.523438 " fill-opacity="1" fill-rule="nonzero"/><path fill="#231f20" d="M 247.089844 146.394531 C 246.8125 145.910156 246.53125 145.429688 246.25 144.953125 L 244.832031 145.804688 C 245.113281 146.269531 245.386719 146.738281 245.65625 147.210938 L 247.089844 146.394531 " fill-opacity="1" fill-rule="nonzero"/><path fill="#231f20" d="M 244.472656 142.128906 C 244.164062 141.667969 243.855469 141.207031 243.542969 140.75 L 242.183594 141.6875 C 242.496094 142.132812 242.796875 142.585938 243.101562 143.042969 L 244.472656 142.128906 " fill-opacity="1" fill-rule="nonzero"/><path fill="#231f20" d="M 241.363281 226.242188 L 242.703125 227.207031 C 243.03125 226.753906 243.351562 226.296875 243.664062 225.839844 L 242.308594 224.902344 C 241.996094 225.351562 241.683594 225.800781 241.363281 226.242188 " fill-opacity="1" fill-rule="nonzero"/><path fill="#231f20" d="M 241.582031 138.050781 C 241.246094 137.605469 240.902344 137.164062 240.554688 136.730469 L 239.269531 137.757812 C 239.605469 138.183594 239.941406 138.613281 240.269531 139.042969 L 241.582031 138.050781 " fill-opacity="1" fill-rule="nonzero"/><g clip-path="url(#e33d657fda)"><g clip-path="url(#4dc48c4f88)"><g clip-path="url(#939545c78c)"><g clip-path="url(#c088dd61ac)"><path fill="#000000" d="M 259.523438 266.519531 C 258.019531 267.945312 255.644531 267.882812 254.21875 266.378906 C 252.796875 264.875 252.859375 262.5 254.363281 261.078125 C 255.867188 259.652344 258.242188 259.714844 259.664062 261.21875 C 261.089844 262.722656 261.023438 265.097656 259.523438 266.519531 Z M 259.523438 266.519531 " fill-opacity="1" fill-rule="evenodd"/></g></g></g></g></svg>